<?xml version="1.0" encoding="utf-8"?>
<!-- Generator: Adobe Illustrator 24.1.0, SVG Export Plug-In . SVG Version: 6.00 Build 0)  -->
<svg version="1.1" xmlns="http://www.w3.org/2000/svg" xmlns:xlink="http://www.w3.org/1999/xlink" x="0px" y="0px"
	 viewBox="0 0 739.6 789.7" style="enable-background:new 0 0 739.6 789.7;" xml:space="preserve">
<style type="text/css">
	.st0{display:none;}
	.st1{display:inline;}
	.st2{fill:none;stroke:#FFFFFF;stroke-width:0.5;stroke-miterlimit:10;}
	.st3{fill:#259EA2;}
	.st4{fill:#259EA1;}
	.st5{fill:#2EAAAE;}
	.st6{fill:#33B3B5;}
	.st7{fill:#33B0B4;}
	.st8{fill:#31AEB1;}
	.st9{fill:#33B2B4;}
	.st10{fill:#38BBBC;}
	.st11{fill:#36B5BA;}
	.st12{fill:#3ABDBE;}
	.st13{fill:#37B7BB;}
	.st14{fill:#38B9BB;}
	.st15{fill:#30ACB0;}
	.st16{fill:#35B4B7;}
	.st17{fill:#37B6BA;}
	.st18{fill:#39BABC;}
	.st19{fill:#37B8BC;}
	.st20{fill:#38BBBD;}
	.st21{fill:#3ABBBD;}
	.st22{fill:#3CC0C1;}
	.st23{fill:#3BC0C0;}
	.st24{fill:#3CBFC0;}
	.st25{fill:#3DC2C1;}
	.st26{fill:#3FC4C3;}
	.st27{fill:#3DC2C3;}
	.st28{fill:#3EC3C2;}
	.st29{fill:#3CC1C2;}
	.st30{fill:#3EC5C2;}
	.st31{fill:#3BBEBF;}
	.st32{fill:#40C8C2;}
	.st33{fill:#39BCBD;}
	.st34{fill:#30ADB1;}
	.st35{fill:#37B8BA;}
	.st36{fill:#35B4B8;}
	.st37{fill:#34B1B4;}
	.st38{fill:#36B7BA;}
	.st39{fill:#41C8C2;}
	.st40{fill:#3FC6C3;}
	.st41{fill:#3FC5C2;}
	.st42{fill:#42C9C2;}
	.st43{fill:#42CCC2;}
	.st44{fill:#42CEC1;}
	.st45{fill:#41C9C2;}
	.st46{fill:#41CAC3;}
	.st47{fill:#40C7C2;}
	.st48{fill:#3BBEC0;}
	.st49{fill:#41CAC2;}
	.st50{fill:#3FC8C2;}
	.st51{fill:#3FC6C1;}
	.st52{fill:#42CFC1;}
	.st53{fill:#43D0C2;}
	.st54{fill:#41CDC1;}
	.st55{fill:#44D0C2;}
	.st56{fill:#43CDC1;}
	.st57{fill:#44D1C1;}
	.st58{fill:#44D3C2;}
	.st59{fill:#44D3C1;}
	.st60{fill:#42CEC3;}
	.st61{fill:#45D4C0;}
	.st62{fill:#43D2C1;}
	.st63{fill:#45D1C1;}
	.st64{fill:#45D5BE;}
	.st65{fill:#45D6BE;}
	.st66{fill:#45D7BE;}
	.st67{fill:#45D7BD;}
	.st68{fill:#46D8BD;}
	.st69{fill:#46D8BC;}
	.st70{fill:#47D9BB;}
	.st71{fill:#45DBB9;}
	.st72{fill:#47DABA;}
	.st73{fill:#45DCB7;}
	.st74{fill:#46DCB8;}
	.st75{fill:#45D6BF;}
	.st76{fill:#46DDB6;}
	.st77{fill:#46DDB4;}
	.st78{fill:#46DFB4;}
	.st79{fill:#46DEB5;}
	.st80{fill:#48DEB5;}
	.st81{fill:#47DFB5;}
	.st82{fill:#249C9F;}
	.st83{fill:#269FA2;}
	.st84{fill:#28A0A3;}
	.st85{fill:#27A2A5;}
	.st86{fill:#269CA0;}
	.st87{fill:#29A3A8;}
	.st88{fill:#29A1A5;}
	.st89{fill:#2AA4A8;}
	.st90{fill:#29A3A5;}
	.st91{fill:#26A0A3;}
	.st92{fill:#27A1A4;}
	.st93{fill:#29A2A7;}
	.st94{fill:#2DA7AB;}
</style>
<g id="Laag_1" class="st0">
	<g id="Group_332" transform="translate(-46.172 -56.091)" class="st1">
		<path id="Path_797" class="st2" d="M765.1,605.5"/>
		<path id="Path_798" class="st3" d="M765,605.5l-19.9,22.5l26.3-10.1L765,605.5z"/>
		<path id="Path_799" class="st4" d="M745.2,628.1l26.7,0.9l-0.3-10.9L745.2,628.1z"/>
		<path id="Path_800" class="st5" d="M765,348h-52.6l32.7,81.4L765,348z"/>
		<path id="Path_801" class="st6" d="M658.3,293.1l46,36.7l-23,14.5L658.3,293.1z"/>
		<path id="Path_802" class="st7" d="M712.5,348l-16.1-13.2l-7.6,40.7L712.5,348z"/>
		<path id="Path_803" class="st8" d="M745.2,429.4l-56.4-53.9l23.7-27.5L745.2,429.4z"/>
		<path id="Path_804" class="st9" d="M681.3,344.3l7.4,31.2l7.6-40.7L681.3,344.3z"/>
		<path id="Path_805" class="st10" d="M658.3,293.1l-17.9-32l-13.2,32H658.3z"/>
		<path id="Path_806" class="st11" d="M681.3,344.3l-23-51.2l-15.6,51.2H681.3z"/>
		<path id="Path_807" class="st12" d="M627.2,293.1l-7.2-75.8l20.4,43.8L627.2,293.1z"/>
		<path id="Path_808" class="st13" d="M688.8,375.5l-46-31.2h38.6L688.8,375.5z"/>
		<path id="Path_809" class="st14" d="M627.2,293.1l15.6,51.2l15.6-51.2H627.2z"/>
		<path id="Path_810" class="st15" d="M688.8,375.5L696,473l49.2-43.6L688.8,375.5z"/>
		<path id="Path_811" class="st6" d="M658.3,521.2L696,473l-41.3-66.6L658.3,521.2z"/>
		<path id="Path_812" class="st16" d="M688.8,375.5l-34,31L696,473L688.8,375.5z"/>
		<path id="Path_813" class="st17" d="M642.8,344.3l12,62.2l34-31L642.8,344.3z"/>
		<path id="Path_814" class="st14" d="M658.3,521.2l-48.9-68.6l45.3-46.1L658.3,521.2z"/>
		<path id="Path_815" class="st18" d="M642.8,344.3l-33.3,44.5l45.3,17.8L642.8,344.3z"/>
		<path id="Path_816" class="st19" d="M609.4,452.6v-63.9l45.3,17.8L609.4,452.6z"/>
		<path id="Path_817" class="st20" d="M642.8,344.3l-33.3-25.6v70L642.8,344.3z"/>
		<path id="Path_818" class="st21" d="M627.2,293.1l-17.8,25.6l33.3,25.6L627.2,293.1z"/>
		<path id="Path_819" class="st22" d="M620,217.3l-28.7,37.9l35.9,37.9L620,217.3z"/>
		<path id="Path_820" class="st23" d="M609.4,318.7l-18.1-63.5l35.9,37.9L609.4,318.7z"/>
		<path id="Path_821" class="st24" d="M620,217.3l-28.7-17v54.9L620,217.3z"/>
		<path id="Path_822" class="st23" d="M588.7,163.3l2.7,36.9l28.7,17L588.7,163.3z"/>
		<path id="Path_823" class="st25" d="M591.3,255.2l-25.2-27.5l25.2-27.5V255.2z"/>
		<path id="Path_824" class="st26" d="M588.7,163.3l-26.4,27l29,9.9L588.7,163.3z"/>
		<path id="Path_825" class="st27" d="M609.4,318.7l-43.3-13.5l25.2-49.9L609.4,318.7z"/>
		<path id="Path_826" class="st28" d="M566.1,227.7v77.4l25.2-49.9L566.1,227.7z"/>
		<path id="Path_827" class="st26" d="M562.3,190.3l3.8,37.4l25.2-27.5L562.3,190.3z"/>
		<path id="Path_828" class="st25" d="M588.7,163.3L576,145.9l-13.7,44.4L588.7,163.3z"/>
		<path id="Path_829" class="st29" d="M597.5,137.9l-21.5,8.1l12.7,17.4L597.5,137.9z"/>
		<path id="Path_830" class="st28" d="M589.9,120.7L576,145.9l21.5-8.1L589.9,120.7z"/>
		<path id="Path_831" class="st30" d="M563.5,118.5l12.5,27.4l13.9-25.2L563.5,118.5z"/>
		<path id="Path_832" class="st31" d="M609.4,318.7l-43.3,41.2v-54.7L609.4,318.7z"/>
		<path id="Path_833" class="st22" d="M609.4,388.7l-43.3-28.8l43.3-41.2V388.7z"/>
		<path id="Path_834" class="st23" d="M609.4,452.6l-47.1-39.9l47.1-24V452.6z"/>
		<path id="Path_835" class="st23" d="M566.1,359.9l-3.8,52.8l47.1-24L566.1,359.9z"/>
		<path id="Path_836" class="st6" d="M658.3,521.2l-60.8,11.4l11.9-80L658.3,521.2z"/>
		<path id="Path_837" class="st24" d="M562.3,412.7l3.8,60.3l43.3-20.5L562.3,412.7z"/>
		<path id="Path_838" class="st21" d="M597.5,532.6L566.1,473l43.3-20.5L597.5,532.6z"/>
		<path id="Path_839" class="st28" d="M562.3,190.3l-24,25.4l27.8,12L562.3,190.3z"/>
		<path id="Path_840" class="st26" d="M576,145.9l-33.3,11.7l19.6,32.7L576,145.9z"/>
		<path id="Path_841" class="st30" d="M563.5,118.5l-20.7,39.1l33.3-11.7L563.5,118.5z"/>
		<path id="Path_842" class="st26" d="M536.9,126.5l5.8,31.1l20.7-39.1L536.9,126.5z"/>
		<path id="Path_843" class="st32" d="M506.3,118.5l30.6,8l5.8,31.1L506.3,118.5z"/>
		<path id="Path_844" class="st16" d="M597.5,532.6l65.9,39.1l-5.1-50.5L597.5,532.6z"/>
		<path id="Path_845" class="st18" d="M566.1,473l-13.9,53.4l45.3,6.1L566.1,473z"/>
		<path id="Path_846" class="st33" d="M597.5,532.6l-1.6,41.7l-43.7-47.8L597.5,532.6z"/>
		<path id="Path_847" class="st17" d="M663.4,571.7l-67.5,2.6l1.6-41.7L663.4,571.7z"/>
		<path id="Path_848" class="st34" d="M671,615.7l-7.6-44l-67.5,2.6L671,615.7z"/>
		<path id="Path_849" class="st35" d="M552.2,526.5l-13.9,47.8h57.6L552.2,526.5z"/>
		<path id="Path_850" class="st16" d="M671,615.7l-17,40.7l-58.1-82.1L671,615.7z"/>
		<path id="Path_851" class="st18" d="M595.9,574.2l-10,38.8l-47.6-38.8H595.9z"/>
		<path id="Path_852" class="st7" d="M654,656.3l-68.1-43.2l10-38.8L654,656.3z"/>
		<path id="Path_853" class="st36" d="M585.9,613.1l23.4,67.8l44.7-24.5L585.9,613.1z"/>
		<path id="Path_854" class="st33" d="M538.3,574.2v49.2l47.6-10.4L538.3,574.2z"/>
		<path id="Path_855" class="st18" d="M609.3,680.8l-71-57.4l47.6-10.4L609.3,680.8z"/>
		<path id="Path_856" class="st37" d="M609.5,732.4l-25.9,16.9v-34.3L609.5,732.4z"/>
		<path id="Path_857" class="st7" d="M609.5,732.4l-0.3-51.5l-25.7,34.1L609.5,732.4z"/>
		<path id="Path_858" class="st35" d="M538.3,623.5l45.3,91.5l25.7-34.1L538.3,623.5z"/>
		<path id="Path_859" class="st6" d="M583.6,749.2l-9.8,34.3l-21.6-34.3H583.6z"/>
		<path id="Path_860" class="st9" d="M583.6,714.9l-31.4,34.3h31.4V714.9z"/>
		<path id="Path_861" class="st18" d="M538.3,623.5L525,714.9h58.6L538.3,623.5z"/>
		<path id="Path_862" class="st11" d="M552.2,749.2L525,714.9h58.6L552.2,749.2z"/>
		<path id="Path_863" class="st7" d="M573.8,783.5l-21.6,23v-57.3L573.8,783.5z"/>
		<path id="Path_864" class="st35" d="M525,714.9l-8,41.9l35.2-7.6L525,714.9z"/>
		<path id="Path_865" class="st38" d="M552.2,806.5L517,756.8l35.2-7.6V806.5z"/>
		<path id="Path_866" class="st17" d="M517,756.8l-10.5,82l45.8-32.3L517,756.8z"/>
		<path id="Path_867" class="st16" d="M506.5,838.8l-44.4,7l55-89L506.5,838.8z"/>
		<path id="Path_868" class="st14" d="M517,756.8l-91.2,70.9l36.3,18.1L517,756.8z"/>
		<path id="Path_869" class="st39" d="M542.8,157.6l-43.6-7l7.1-32.1L542.8,157.6z"/>
		<path id="Path_870" class="st40" d="M562.3,190.3l-19.6-32.7l-4.4,58.1L562.3,190.3z"/>
		<path id="Path_871" class="st40" d="M499.2,150.6l39.1,65.1l4.4-58.1L499.2,150.6z"/>
		<path id="Path_872" class="st25" d="M566.1,227.7l-27.8,33.4l27.8,44.1V227.7z"/>
		<path id="Path_873" class="st41" d="M538.3,215.7v45.4l27.8-33.4L538.3,215.7z"/>
		<path id="Path_874" class="st28" d="M566.1,305.1l-27.8,24.6l27.8,30.1V305.1z"/>
		<path id="Path_875" class="st29" d="M562.3,412.7L525,386.3l41.1-26.4L562.3,412.7z"/>
		<path id="Path_876" class="st26" d="M538.3,329.8L525,386.3l41.1-26.4L538.3,329.8z"/>
		<path id="Path_877" class="st25" d="M562.3,412.7l-32.9,30.2l-4.4-56.6L562.3,412.7z"/>
		<path id="Path_878" class="st25" d="M566.1,473l-36.7-30.2l32.9-30.2L566.1,473z"/>
		<path id="Path_879" class="st27" d="M552.2,526.5L538.3,478l-8.9-35.2l36.7,30.2L552.2,526.5z"/>
		<path id="Path_880" class="st28" d="M525,386.3l-25.8,34.4l30.2,22.2L525,386.3z"/>
		<path id="Path_881" class="st26" d="M538.3,329.8l-39.1,5l25.8,51.5L538.3,329.8z"/>
		<path id="Path_882" class="st26" d="M538.3,261.1v68.7l27.8-24.6L538.3,261.1z"/>
		<path id="Path_883" class="st30" d="M499.2,334.8l39.1-73.7v68.7L499.2,334.8z"/>
		<path id="Path_884" class="st42" d="M499.2,150.6l-18.6-39.8l25.7,7.7L499.2,150.6z"/>
		<path id="Path_885" class="st43" d="M480.6,110.8l-19.8-4.3l5.5,24.2L480.6,110.8z"/>
		<path id="Path_886" class="st44" d="M460.8,106.5l-14.2,6.7l19.7,17.5L460.8,106.5z"/>
		<path id="Path_887" class="st43" d="M447.6,125.3l18.7,5.4l-19.7-17.5L447.6,125.3z"/>
		<path id="Path_888" class="st45" d="M480.6,110.8l-14.3,19.9l32.9,19.9L480.6,110.8z"/>
		<path id="Path_889" class="st2" d="M447.6,125.3"/>
		<path id="Path_890" class="st43" d="M466.3,130.7l2,22.3l30.9-2.4L466.3,130.7z"/>
		<path id="Path_891" class="st46" d="M538.3,215.7l-70-62.7l30.9-2.4L538.3,215.7z"/>
		<path id="Path_892" class="st43" d="M447.6,125.3l20.7,27.7l-2-22.3L447.6,125.3z"/>
		<path id="Path_893" class="st47" d="M538.3,215.7l-32,16.7l32,28.7V215.7z"/>
		<path id="Path_894" class="st33" d="M517,756.8l-102.5,26.5l11.2,44.3L517,756.8z"/>
		<path id="Path_895" class="st18" d="M525,714.9l-8,41.9l-37.3-34.9L525,714.9z"/>
		<path id="Path_896" class="st2" d="M414.5,783.3"/>
		<path id="Path_897" class="st33" d="M479.6,721.9l-16.5,48.9l53.8-13.9L479.6,721.9z"/>
		<path id="Path_898" class="st33" d="M463.1,770.7L438,732.1l41.7-10.2L463.1,770.7z"/>
		<path id="Path_899" class="st48" d="M414.5,783.3l23.5-51.2l25.2,38.7L414.5,783.3z"/>
		<path id="Path_900" class="st22" d="M397,758.4l41-26.3l-23.5,51.2L397,758.4z"/>
		<path id="Path_901" class="st12" d="M479.6,721.9l17.3-34.8l28,27.9L479.6,721.9z"/>
		<path id="Path_902" class="st10" d="M497,687.1l36.5-30.7l-8.5,58.6L497,687.1z"/>
		<path id="Path_903" class="st28" d="M438,732.1l-48-3.6l7,29.9L438,732.1z"/>
		<path id="Path_904" class="st12" d="M497,687.1l-33.8,2.3l16.5,32.5L497,687.1z"/>
		<path id="Path_905" class="st24" d="M438,732.1l25.2-42.7l16.5,32.5L438,732.1z"/>
		<path id="Path_906" class="st29" d="M390,728.5l32.6-24l15.3,27.6L390,728.5z"/>
		<path id="Path_907" class="st22" d="M463.1,689.4l-40.5,15.1l15.3,27.6L463.1,689.4z"/>
		<path id="Path_908" class="st28" d="M384.9,708.2l5.1,20.3l32.6-24L384.9,708.2z"/>
		<path id="Path_909" class="st40" d="M367.7,677l17.2,31.2l17.8-31.2H367.7z"/>
		<path id="Path_910" class="st26" d="M422.6,704.5l-20-27.5l-17.8,31.2L422.6,704.5z"/>
		<path id="Path_911" class="st25" d="M463.1,689.4L438,666.7l-15.3,37.7L463.1,689.4z"/>
		<path id="Path_912" class="st25" d="M402.7,677l35.3-10.3l-15.3,37.7L402.7,677z"/>
		<path id="Path_913" class="st12" d="M497,687.1l-5.3-40.1l41.9,9.4L497,687.1z"/>
		<path id="Path_914" class="st48" d="M463.1,689.4l28.5-42.4l5.3,40.1L463.1,689.4z"/>
		<path id="Path_915" class="st23" d="M438,666.7l53.7-19.8l-28.5,42.4L438,666.7z"/>
		<path id="Path_916" class="st41" d="M402.7,677l7.6-30.1l27.7,19.8L402.7,677z"/>
		<path id="Path_917" class="st40" d="M367.7,677l42.6-30.1l-7.6,30.1H367.7z"/>
		<path id="Path_918" class="st20" d="M491.6,646.9l46.7-23.5l-4.8,32.9L491.6,646.9z"/>
		<path id="Path_919" class="st25" d="M438,666.7l15-33.7l38.7,13.9L438,666.7z"/>
		<path id="Path_920" class="st41" d="M410.3,646.9l42.7-13.9l-15,33.7L410.3,646.9z"/>
		<path id="Path_921" class="st27" d="M491.6,646.9l-7.7-29.6L453,633L491.6,646.9z"/>
		<path id="Path_922" class="st28" d="M410.3,646.9l17.3-31.7l25.3,17.8L410.3,646.9z"/>
		<path id="Path_923" class="st22" d="M538.3,623.5l-54.3-6.1l7.7,29.6L538.3,623.5z"/>
		<path id="Path_924" class="st24" d="M538.3,574.2L484,617.4l54.3,6.1V574.2z"/>
		<path id="Path_925" class="st28" d="M427.6,615.3l56.3,2.1L453,633L427.6,615.3z"/>
		<path id="Path_926" class="st40" d="M410.3,646.9L397,619.1l30.6-3.8L410.3,646.9z"/>
		<path id="Path_927" class="st40" d="M367.7,677l29.4-58l13.3,27.9L367.7,677z"/>
		<path id="Path_928" class="st48" d="M552.2,526.5l-34.2,6.1l20.3,41.7L552.2,526.5z"/>
		<path id="Path_929" class="st22" d="M538.3,478L518,532.6l34.2-6.1L538.3,478z"/>
		<path id="Path_930" class="st22" d="M484,617.4l34-84.8l20.3,41.7L484,617.4z"/>
		<path id="Path_931" class="st26" d="M427.6,615.3l76.4-47.8l-20,49.9L427.6,615.3z"/>
		<path id="Path_932" class="st25" d="M518,532.6l-34,5.8l20,29.1L518,532.6z"/>
		<path id="Path_933" class="st29" d="M538.3,478l-37.3-2l28.4-33.2L538.3,478z"/>
		<path id="Path_934" class="st25" d="M518,532.6L501,476l37.3,2L518,532.6z"/>
		<path id="Path_935" class="st41" d="M499.2,420.6L501,476l28.4-33.2L499.2,420.6z"/>
		<path id="Path_936" class="st40" d="M506.3,232.4L504,185l34.3,30.7L506.3,232.4z"/>
		<path id="Path_937" class="st43" d="M468.3,153l-7.5,45.1L504,185L468.3,153z"/>
		<path id="Path_938" class="st46" d="M506.3,232.4l-45.5-34.2L504,185L506.3,232.4z"/>
		<path id="Path_939" class="st40" d="M538.3,261.1l-32-28.7l11.7,67L538.3,261.1z"/>
		<path id="Path_940" class="st49" d="M460.8,198.2v53l45.5-18.8L460.8,198.2z"/>
		<path id="Path_941" class="st47" d="M518,299.4l-57.2-48.3l45.5-18.8L518,299.4z"/>
		<path id="Path_942" class="st50" d="M499.2,334.8l-10.9-60.5l29.7,25.1L499.2,334.8z"/>
		<path id="Path_943" class="st40" d="M499.2,420.6v-85.9l25.8,51.5L499.2,420.6z"/>
		<path id="Path_944" class="st30" d="M501,476l-34.7-33.2l32.9-22.2L501,476z"/>
		<path id="Path_945" class="st40" d="M499.2,379.6l-32.9,63.3l32.9-22.2V379.6z"/>
		<path id="Path_946" class="st47" d="M499.2,334.8l-26.9,29.8l26.9,15L499.2,334.8z"/>
		<path id="Path_947" class="st32" d="M488.3,274.3l-32.4,44.4l43.4,16.1L488.3,274.3z"/>
		<path id="Path_948" class="st45" d="M460.8,251.1l-5,67.6l32.4-44.4L460.8,251.1z"/>
		<path id="Path_949" class="st39" d="M472.3,364.5l-16.5-45.9l43.4,16.1L472.3,364.5z"/>
		<path id="Path_950" class="st32" d="M466.3,442.9l6-78.3l26.9,15L466.3,442.9z"/>
		<path id="Path_951" class="st29" d="M484,538.4l17-62.3l17,56.5L484,538.4z"/>
		<path id="Path_952" class="st26" d="M427.6,615.3l56.3-76.9l20,29.1L427.6,615.3z"/>
		<path id="Path_953" class="st30" d="M397,619l13.3-35.7l17.3,31.9L397,619z"/>
		<path id="Path_954" class="st40" d="M484,538.4l-73.7,45l17.3,31.9L484,538.4z"/>
		<path id="Path_955" class="st51" d="M367.7,677l-9.2-25.7L397,619L367.7,677z"/>
		<path id="Path_956" class="st50" d="M397,619.1l-27.7-8l-10.8,40.2L397,619.1z"/>
		<path id="Path_957" class="st47" d="M410.3,583.4l-41,27.7l27.7,8L410.3,583.4z"/>
		<path id="Path_958" class="st47" d="M410.3,583.4l-37-16.5l-4,44.2L410.3,583.4z"/>
		<path id="Path_959" class="st26" d="M484,538.4l-63.7-5.8l-10,50.8L484,538.4z"/>
		<path id="Path_960" class="st26" d="M501,476l-45.2,12.2l28.2,50.1L501,476z"/>
		<path id="Path_961" class="st51" d="M420.3,532.6l35.5-44.3l28.2,50.1L420.3,532.6z"/>
		<path id="Path_962" class="st39" d="M373.3,566.8l47-34.2l-10,50.8L373.3,566.8z"/>
		<path id="Path_963" class="st51" d="M466.3,442.9l-10.5,45.4L501,476L466.3,442.9z"/>
		<path id="Path_964" class="st32" d="M420.3,532.6l-59.1-2l12.2,36.3L420.3,532.6z"/>
		<path id="Path_965" class="st32" d="M455.8,488.3L415,480l5.3,52.5L455.8,488.3z"/>
		<path id="Path_966" class="st47" d="M466.3,442.9L415,480l40.8,8.2L466.3,442.9z"/>
		<path id="Path_967" class="st50" d="M361.2,530.5L415,480l5.3,52.5L361.2,530.5z"/>
		<path id="Path_968" class="st39" d="M466.3,442.9l-34.7-18.6L415,480L466.3,442.9z"/>
		<path id="Path_969" class="st32" d="M472.3,364.5l-40.7,59.7l34.7,18.6L472.3,364.5z"/>
		<path id="Path_970" class="st39" d="M455.8,318.7l-24.2,41.2l40.7,4.7L455.8,318.7z"/>
		<path id="Path_971" class="st39" d="M431.6,424.3v-64.4l40.7,4.7L431.6,424.3z"/>
		<path id="Path_972" class="st49" d="M415,480l-48.7-10.8l-5.1,61.3L415,480z"/>
		<path id="Path_973" class="st45" d="M431.6,424.3l-65.3,45L415,480L431.6,424.3z"/>
		<path id="Path_974" class="st44" d="M366.3,469.2l-37,19.1l31.8,42.3L366.3,469.2z"/>
		<path id="Path_975" class="st44" d="M366.3,469.2l-33.9-12.6l-3,31.6L366.3,469.2z"/>
		<path id="Path_976" class="st52" d="M332.4,456.6l26.1-23l7.8,35.6L332.4,456.6z"/>
		<path id="Path_977" class="st43" d="M431.6,424.3l-73.1,9.3l7.8,35.6L431.6,424.3z"/>
		<path id="Path_978" class="st53" d="M358.5,433.6l-22.3,0.8l-3.9,22.2L358.5,433.6z"/>
		<path id="Path_979" class="st43" d="M358.5,433.6l32.2-36.9l40.9,27.6L358.5,433.6z"/>
		<path id="Path_980" class="st49" d="M431.6,359.9l-40.9,36.8l40.9,27.6V359.9z"/>
		<path id="Path_981" class="st43" d="M358.5,433.6l-3.3-36.9h35.6L358.5,433.6z"/>
		<path id="Path_982" class="st54" d="M431.6,359.9l-43.6-9.8l2.7,46.7L431.6,359.9z"/>
		<path id="Path_983" class="st53" d="M355.2,396.7l-19,37.7l22.3-0.8L355.2,396.7z"/>
		<path id="Path_984" class="st43" d="M455.8,318.7l-24.2-9.1v50.3L455.8,318.7z"/>
		<path id="Path_985" class="st55" d="M336.2,434.4l-13.9-15.1l32.8-22.6L336.2,434.4z"/>
		<path id="Path_986" class="st44" d="M388.1,350l-32.9,46.7h35.6L388.1,350z"/>
		<path id="Path_987" class="st56" d="M431.6,309.6L388.1,350l43.6,9.8V309.6z"/>
		<path id="Path_988" class="st45" d="M460.8,251.1l-29.2,58.5l24.2,9.1L460.8,251.1z"/>
		<path id="Path_989" class="st55" d="M355.2,396.7l-9.8-46.7h42.6L355.2,396.7z"/>
		<path id="Path_990" class="st53" d="M322.3,419.3l4-30.6l28.9,8L322.3,419.3z"/>
		<path id="Path_991" class="st55" d="M345.4,350l-19.1,38.7l28.9,8L345.4,350z"/>
		<path id="Path_992" class="st57" d="M322.3,419.3l-29,1.3l33-31.9L322.3,419.3z"/>
		<path id="Path_993" class="st53" d="M345.4,350l27.5-31.4l15.1,31.4H345.4z"/>
		<path id="Path_994" class="st58" d="M326.3,388.7l-16.5-31.5l35.6-7.1L326.3,388.7z"/>
		<path id="Path_995" class="st53" d="M373,318.7l58.7-9.1L388.1,350L373,318.7z"/>
		<path id="Path_996" class="st43" d="M468.3,153l-24.6-5.7l3.9-22.1L468.3,153z"/>
		<path id="Path_997" class="st59" d="M326.3,388.7l-45.6,12.1l12.6,19.8L326.3,388.7z"/>
		<path id="Path_998" class="st59" d="M309.8,357.2l-29.1,43.7l45.6-12.1L309.8,357.2z"/>
		<path id="Path_999" class="st59" d="M345.4,350l-19.1-27.1l-16.5,34.2L345.4,350z"/>
		<path id="Path_1000" class="st55" d="M373,318.7l-46.7,4.3l19.1,27.1L373,318.7z"/>
		<path id="Path_1001" class="st44" d="M431.6,309.6l-36.6-26.2L373,318.7L431.6,309.6z"/>
		<path id="Path_1002" class="st60" d="M460.8,251.1l-65.7,32.2l36.6,26.2L460.8,251.1z"/>
		<path id="Path_1003" class="st49" d="M460.8,198.2L430,222.7l30.8,28.4V198.2z"/>
		<path id="Path_1004" class="st43" d="M468.3,153l-22.1,15.1l14.6,30L468.3,153z"/>
		<path id="Path_1005" class="st43" d="M443.7,147.3l2.5,20.8l22.1-15.1L443.7,147.3z"/>
		<path id="Path_1006" class="st54" d="M430,222.7l16.3-54.6l14.6,30L430,222.7z"/>
		<path id="Path_1007" class="st44" d="M443.7,147.3l-8.4-15.3l12.3-6.7L443.7,147.3z"/>
		<path id="Path_1008" class="st44" d="M446.2,168.1l-23.9-10.5l21.4-10.2L446.2,168.1z"/>
		<path id="Path_1009" class="st52" d="M435.3,132l-14.7-7.3l-2.8,14.5L435.3,132z"/>
		<path id="Path_1010" class="st52" d="M422.3,157.6l13-25.6l8.4,15.3L422.3,157.6z"/>
		<path id="Path_1011" class="st52" d="M417.9,139.2l4.4,18.4l13-25.6L417.9,139.2z"/>
		<path id="Path_1012" class="st53" d="M420.6,124.7l-10.4-1.6l7.6,16L420.6,124.7z"/>
		<path id="Path_1013" class="st44" d="M422.3,157.6l16.6,35l7.3-24.4L422.3,157.6z"/>
		<path id="Path_1014" class="st52" d="M438.9,192.6l-28.7-5.9l12-29.1L438.9,192.6z"/>
		<path id="Path_1015" class="st44" d="M430,222.7l-19.7-36.1l28.7,5.9L430,222.7z"/>
		<path id="Path_1016" class="st59" d="M280.7,400.8l-17.8-41l46.8-2.7L280.7,400.8z"/>
		<path id="Path_1017" class="st61" d="M243.2,400.6l19.7-40.7l17.8,41L243.2,400.6z"/>
		<path id="Path_1018" class="st59" d="M309.8,357.2l-16.5-27.4l33-6.8L309.8,357.2z"/>
		<path id="Path_1019" class="st61" d="M263,359.9l30.4-30.1l16.5,27.4L263,359.9z"/>
		<path id="Path_1020" class="st53" d="M373,318.7l-12-31.7l34.1-3.6L373,318.7z"/>
		<path id="Path_1021" class="st62" d="M326.3,322.9l34.7-36l12,31.7L326.3,322.9z"/>
		<path id="Path_1022" class="st59" d="M293.3,329.8l16.5-25.2l16.5,18.4L293.3,329.8z"/>
		<path id="Path_1023" class="st62" d="M361,286.9l-51.2,17.6l16.5,18.4L361,286.9z"/>
		<path id="Path_1024" class="st52" d="M430,222.7l-34.9,60.7l65.7-32.2L430,222.7z"/>
		<path id="Path_1025" class="st52" d="M410.3,186.6l19.7,36.1L390.7,209L410.3,186.6z"/>
		<path id="Path_1026" class="st53" d="M417.9,139.2l-22.8-2.8l15.2-13.2L417.9,139.2z"/>
		<path id="Path_1027" class="st55" d="M403,111l-7.9,25.3l15.2-13.2L403,111z"/>
		<path id="Path_1028" class="st53" d="M417.9,139.2L402.7,153l-7.6-16.7L417.9,139.2z"/>
		<path id="Path_1029" class="st53" d="M422.3,157.6l-19.6-4.6l15.2-13.9L422.3,157.6z"/>
		<path id="Path_1030" class="st53" d="M410.3,186.6l-7.6-33.6l19.6,4.6L410.3,186.6z"/>
		<path id="Path_1031" class="st55" d="M390.7,209l-6.8-27.2l26.3,4.8L390.7,209z"/>
		<path id="Path_1032" class="st53" d="M402.7,153L384,181.8l26.3,4.8L402.7,153z"/>
		<path id="Path_1033" class="st57" d="M403,111l-15.2-5.1l7.3,30.4L403,111z"/>
		<path id="Path_1034" class="st63" d="M402.7,153l-18.7-2.4v31.1L402.7,153z"/>
		<path id="Path_1035" class="st55" d="M395.1,136.3L384,150.7l18.7,2.4L395.1,136.3z"/>
		<path id="Path_1036" class="st55" d="M390.7,209l19.6,47.8l19.6-34.1L390.7,209z"/>
		<path id="Path_1037" class="st55" d="M395.1,283.4l-13.8-32.2l29.1,5.7L395.1,283.4z"/>
		<path id="Path_1038" class="st55" d="M361,286.9l20.3-35.8l13.8,32.2L361,286.9z"/>
		<path id="Path_1039" class="st53" d="M390.7,209l-9.4,42.1l29.1,5.7L390.7,209z"/>
		<path id="Path_1040" class="st57" d="M361,286.9l-15.5-35.8h35.9L361,286.9z"/>
		<path id="Path_1041" class="st63" d="M390.7,209l-29.8,9.7l20.3,32.4L390.7,209z"/>
		<path id="Path_1042" class="st62" d="M345.4,251.1l15.5-32.4l20.3,32.4H345.4z"/>
		<path id="Path_1043" class="st59" d="M309.8,304.5l35.6-53.4l15.5,35.8L309.8,304.5z"/>
		<path id="Path_1044" class="st62" d="M384,181.8l-23,36.9l29.8-9.7L384,181.8z"/>
		<path id="Path_1045" class="st59" d="M387.8,105.9l-16.5-1.8l23.8,32.2L387.8,105.9z"/>
		<path id="Path_1046" class="st62" d="M384,150.7l-0.8-30.5l11.9,16.1L384,150.7z"/>
		<path id="Path_1047" class="st61" d="M371.3,104.1l-16.9-11.3l-2.3,30.3L371.3,104.1z"/>
		<path id="Path_1048" class="st61" d="M354.4,92.8l10.4-12.1l-23.2-4L354.4,92.8z"/>
		<path id="Path_1049" class="st58" d="M352.1,123.1l31.1-2.9l-11.9-16.1L352.1,123.1z"/>
		<path id="Path_1050" class="st59" d="M384,150.7l-31.9-27.5l31.1-2.9L384,150.7z"/>
		<path id="Path_1051" class="st64" d="M354.4,92.8l-21.6,13.1l8.8-29.2L354.4,92.8z"/>
		<path id="Path_1052" class="st61" d="M352.1,123.1l-19.4-17.2l21.6-13.1L352.1,123.1z"/>
		<path id="Path_1053" class="st59" d="M384,150.7l-34.1-0.1l2.2-27.5L384,150.7z"/>
		<path id="Path_1054" class="st63" d="M384,181.8l-34.1-31.2l34.1,0.1V181.8z"/>
		<path id="Path_1055" class="st61" d="M352.1,123.1l-20.3,12.9l1-30.2L352.1,123.1z"/>
		<path id="Path_1056" class="st61" d="M349.9,150.6l-18.1-14.5l20.3-12.9L349.9,150.6z"/>
		<path id="Path_1057" class="st59" d="M364.8,80.7l-4.7-10.3l-18.6,6.3L364.8,80.7z"/>
		<path id="Path_1058" class="st61" d="M360.1,70.4l7.9-8.8l-11.3-5.5L360.1,70.4z"/>
		<path id="Path_1059" class="st61" d="M341.6,76.7l15.2-20.6l3.4,14.3L341.6,76.7z"/>
		<path id="Path_1060" class="st61" d="M343.5,57.9l2.6,12.5l10.5-14.3L343.5,57.9z"/>
		<path id="Path_1061" class="st65" d="M243.2,400.6l-28.9,11.6V379L243.2,400.6z"/>
		<path id="Path_1062" class="st64" d="M263,359.9L214.4,379l28.9,21.6L263,359.9z"/>
		<path id="Path_1063" class="st65" d="M214.4,412.1l-24.7-1.6l24.7-31.6V412.1z"/>
		<path id="Path_1064" class="st64" d="M263,359.9l2.4-37.8l27.9,7.7L263,359.9z"/>
		<path id="Path_1065" class="st66" d="M189.7,410.6l-4.3-31.6h29L189.7,410.6z"/>
		<path id="Path_1066" class="st65" d="M263,359.9l-24.3-19.8L214.4,379L263,359.9z"/>
		<path id="Path_1067" class="st64" d="M265.4,322l-26.8,18l24.3,19.8L265.4,322z"/>
		<path id="Path_1068" class="st67" d="M214.4,379l-10.3-34.2l34.6-4.8L214.4,379z"/>
		<path id="Path_1069" class="st66" d="M185.4,379l18.7-34.2l10.3,34.2H185.4z"/>
		<path id="Path_1070" class="st67" d="M189.7,410.6l-22.9,1.4l18.6-32.9L189.7,410.6z"/>
		<path id="Path_1071" class="st68" d="M166.8,412l-17.9,7.4v-30.6L166.8,412z"/>
		<path id="Path_1072" class="st67" d="M185.4,379l-36.6,9.7l17.9,23.2L185.4,379z"/>
		<path id="Path_1073" class="st69" d="M148.8,419.3l-25.3-13.6l25.3-17V419.3z"/>
		<path id="Path_1074" class="st70" d="M123.5,405.7v-34l25.3,17L123.5,405.7z"/>
		<path id="Path_1075" class="st70" d="M123.5,405.7l-24.3-20l24.3-14L123.5,405.7z"/>
		<path id="Path_1076" class="st69" d="M148.8,388.7l15.7-26.8l20.9,17.1L148.8,388.7z"/>
		<path id="Path_1077" class="st69" d="M123.5,371.7l41-9.8l-15.7,26.8L123.5,371.7z"/>
		<path id="Path_1078" class="st67" d="M204.1,344.8l-39.6,17.1l20.9,17.1L204.1,344.8z"/>
		<path id="Path_1079" class="st70" d="M123.5,371.7l-38.3,1.4l13.9,12.5L123.5,371.7z"/>
		<path id="Path_1080" class="st70" d="M164.5,361.9l-28.3-22.5l-12.6,32.3L164.5,361.9z"/>
		<path id="Path_1081" class="st70" d="M85.3,373.1l17.2-17.6l21.1,16.2L85.3,373.1z"/>
		<path id="Path_1082" class="st71" d="M102.5,355.5L80,354l5.2,19.1L102.5,355.5z"/>
		<path id="Path_1083" class="st71" d="M80,354l-17.3-15.8l21.7-6L80,354z"/>
		<path id="Path_1084" class="st71" d="M102.5,355.5l-18.1-23.3L80,354L102.5,355.5z"/>
		<path id="Path_1085" class="st72" d="M136.2,339.4l-33.7,16.2l21.1,16.2L136.2,339.4z"/>
		<path id="Path_1086" class="st68" d="M164.5,361.9l7.6-29.7l32,12.6L164.5,361.9z"/>
		<path id="Path_1087" class="st72" d="M136.2,339.4l35.9-7.1l-7.6,29.7L136.2,339.4z"/>
		<path id="Path_1088" class="st71" d="M102.5,355.5l8.9-32.6l24.8,16.4L102.5,355.5z"/>
		<path id="Path_1089" class="st71" d="M84.4,332.3l26.9-9.3l-8.9,32.6L84.4,332.3z"/>
		<path id="Path_1090" class="st73" d="M62.8,338.2l-11.6-15.3l18.6-5.8L62.8,338.2z"/>
		<path id="Path_1091" class="st73" d="M84.4,332.3l-14.6-15.1l-7.1,21.1L84.4,332.3z"/>
		<path id="Path_1092" class="st73" d="M111.4,322.9l-18.1-15.4l-8.8,24.7L111.4,322.9z"/>
		<path id="Path_1093" class="st73" d="M51.2,322.9l1-20.4l17.6,14.6L51.2,322.9z"/>
		<path id="Path_1094" class="st73" d="M93.3,307.5l-23.4,9.6l14.6,15.1L93.3,307.5z"/>
		<path id="Path_1095" class="st74" d="M52.2,302.6l17.6-6.9v21.5L52.2,302.6z"/>
		<path id="Path_1096" class="st73" d="M93.3,307.5l-23.4-11.9v21.5L93.3,307.5z"/>
		<path id="Path_1097" class="st62" d="M349.9,150.6l11.1,68.1l23-36.9L349.9,150.6z"/>
		<path id="Path_1098" class="st64" d="M331.7,136.1l-21.9-17.6l22.9-12.6L331.7,136.1z"/>
		<path id="Path_1099" class="st59" d="M361,218.7l-30.1-3l14.6,35.4L361,218.7z"/>
		<path id="Path_1100" class="st64" d="M309.8,304.5L293.3,253l52.1-1.9L309.8,304.5z"/>
		<path id="Path_1101" class="st61" d="M330.9,215.7L293.3,253l52.1-1.9L330.9,215.7z"/>
		<path id="Path_1102" class="st61" d="M349.9,150.6l-19,65.1l30.1,3L349.9,150.6z"/>
		<path id="Path_1103" class="st61" d="M309.8,304.5L265.4,322l27.9,7.7L309.8,304.5z"/>
		<path id="Path_1104" class="st61" d="M293.3,253l-27.9,69l44.4-17.5L293.3,253z"/>
		<path id="Path_1105" class="st65" d="M238.7,340.1l-4.8-35.5l31.6,17.5L238.7,340.1z"/>
		<path id="Path_1106" class="st67" d="M204.1,344.8l29.8-40.3l4.8,35.5L204.1,344.8z"/>
		<path id="Path_1107" class="st75" d="M293.3,253l-3-44l40.6,6.7L293.3,253z"/>
		<path id="Path_1108" class="st64" d="M349.9,150.6l-42.7,19.2l23.7,45.9L349.9,150.6z"/>
		<path id="Path_1109" class="st65" d="M290.3,209l16.9-39.2l23.7,45.9L290.3,209z"/>
		<path id="Path_1110" class="st64" d="M309.8,118.5l-2.6,51.4l42.7-19.2L309.8,118.5z"/>
		<path id="Path_1111" class="st76" d="M69.8,295.7l-23.7-1.7l6,8.6L69.8,295.7z"/>
		<path id="Path_1112" class="st76" d="M46.2,293.9l12.9-19.4l10.8,21.2L46.2,293.9z"/>
		<path id="Path_1113" class="st71" d="M93.3,307.5l24.1-5l-6,20.4L93.3,307.5z"/>
		<path id="Path_1114" class="st69" d="M204.1,344.8l-14.4-45.8l44.2,5.5L204.1,344.8z"/>
		<path id="Path_1115" class="st69" d="M172.1,332.3l17.6-33.2l14.4,45.8L172.1,332.3z"/>
		<path id="Path_1116" class="st72" d="M136.2,339.4l9.7-36.8l26.2,29.7L136.2,339.4z"/>
		<path id="Path_1117" class="st72" d="M111.4,322.9l34.5-20.4l-9.7,36.8L111.4,322.9z"/>
		<path id="Path_1118" class="st72" d="M189.7,299.1l-43.8,3.5l26.2,29.7L189.7,299.1z"/>
		<path id="Path_1119" class="st71" d="M117.4,302.6h28.4l-34.5,20.4L117.4,302.6z"/>
		<path id="Path_1120" class="st75" d="M233.8,304.5l45.5-17l-14,34.5L233.8,304.5z"/>
		<path id="Path_1121" class="st67" d="M279.4,287.5l-29.7-20.3l-15.8,37.3L279.4,287.5z"/>
		<path id="Path_1122" class="st65" d="M293.3,253l-43.7,14.2l29.7,20.3L293.3,253z"/>
		<path id="Path_1123" class="st65" d="M290.3,209l-40.7,58.2l43.7-14.2L290.3,209z"/>
		<path id="Path_1124" class="st67" d="M189.7,299.1l59.9-31.8l-15.8,37.3L189.7,299.1z"/>
		<path id="Path_1125" class="st68" d="M290.3,209l-40.7,6.7v51.6L290.3,209z"/>
		<path id="Path_1126" class="st76" d="M59.1,274.5l7.2-21.4L80,263.8L59.1,274.5z"/>
		<path id="Path_1127" class="st76" d="M69.8,295.7L80,263.8l-21,10.7L69.8,295.7z"/>
		<path id="Path_1128" class="st77" d="M66.3,253l13.8-7.9v18.7L66.3,253z"/>
		<path id="Path_1129" class="st74" d="M69.8,295.7l22.9-12.4l0.6,24.3L69.8,295.7z"/>
		<path id="Path_1130" class="st76" d="M80,263.8l12.7,19.5l-22.9,12.4L80,263.8z"/>
		<path id="Path_1131" class="st73" d="M117.4,302.6l-24.7-19.3l0.6,24.3L117.4,302.6z"/>
		<path id="Path_1132" class="st70" d="M189.7,299.1l-22.9-26.4l-20.9,29.9L189.7,299.1z"/>
		<path id="Path_1133" class="st70" d="M249.6,267.2l-49.8-19.4l-10.2,51.2L249.6,267.2z"/>
		<path id="Path_1134" class="st72" d="M166.8,272.7l33.1-24.9l-10.2,51.2L166.8,272.7z"/>
		<path id="Path_1135" class="st71" d="M145.8,302.6l-12-32.3l32.9,2.4L145.8,302.6z"/>
		<path id="Path_1136" class="st71" d="M117.4,302.6l16.4-32.3l12,32.3L117.4,302.6z"/>
		<path id="Path_1137" class="st73" d="M92.7,283.3l41.2-13l-16.4,32.3L92.7,283.3z"/>
		<path id="Path_1138" class="st71" d="M166.8,272.7l-14.7-24.9l-18.2,22.5L166.8,272.7z"/>
		<path id="Path_1139" class="st76" d="M80,263.8h22.5l-9.8,19.5L80,263.8z"/>
		<path id="Path_1140" class="st74" d="M133.8,270.3l-31.4-6.5l-9.8,19.5L133.8,270.3z"/>
		<path id="Path_1141" class="st71" d="M152.1,247.8h47.8l-33.1,24.9L152.1,247.8z"/>
		<path id="Path_1142" class="st73" d="M102.5,263.8l21.1-18.7l10.3,25.2L102.5,263.8z"/>
		<path id="Path_1143" class="st76" d="M80,245.1l22.5,18.7H80V245.1z"/>
		<path id="Path_1144" class="st68" d="M249.6,215.7l-49.7,32.1l49.8,19.4L249.6,215.7z"/>
		<path id="Path_1145" class="st67" d="M309.8,118.5l-23.4,21.8l20.8,29.5L309.8,118.5z"/>
		<path id="Path_1146" class="st67" d="M290.3,209l-24.1-34.6l41-4.6L290.3,209z"/>
		<path id="Path_1147" class="st67" d="M286.4,140.3l-20.2,34.1l41-4.6L286.4,140.3z"/>
		<path id="Path_1148" class="st66" d="M249.6,215.7l16.6-41.2l24.1,34.6L249.6,215.7z"/>
		<path id="Path_1149" class="st61" d="M343.5,57.9l-10.9,1.9l13.5,10.6L343.5,57.9z"/>
		<path id="Path_1150" class="st72" d="M199.9,247.8l10.5-49.7l39.2,17.5L199.9,247.8z"/>
		<path id="Path_1151" class="st72" d="M152.1,247.8l58.3-49.7l-10.5,49.7H152.1z"/>
		<path id="Path_1152" class="st73" d="M123.5,245.1l28.5,2.7l-18.2,22.5L123.5,245.1z"/>
		<path id="Path_1153" class="st76" d="M102.5,263.8l-0.9-21.8l21.9,3.2L102.5,263.8z"/>
		<path id="Path_1154" class="st76" d="M80,245.1l21.6-3.2l0.9,21.8L80,245.1z"/>
		<path id="Path_1155" class="st77" d="M64.7,235.4l15.3,9.7L66.3,253L64.7,235.4z"/>
		<path id="Path_1156" class="st70" d="M266.2,174.5l-55.8,23.7l39.2,17.5L266.2,174.5z"/>
		<path id="Path_1157" class="st69" d="M286.4,140.3h-36.8l16.6,34.1L286.4,140.3z"/>
		<path id="Path_1158" class="st69" d="M210.4,198.2l39.2-57.8l16.6,34.1L210.4,198.2z"/>
		<path id="Path_1159" class="st73" d="M152.1,247.8l15.7-52.7l42.6,3.1L152.1,247.8z"/>
		<path id="Path_1160" class="st72" d="M167.8,195.1l27-28.9l15.7,32L167.8,195.1z"/>
		<path id="Path_1161" class="st71" d="M249.6,140.3l-54.9,25.9l15.6,32L249.6,140.3z"/>
		<path id="Path_1162" class="st73" d="M152.1,247.8L136.2,214l31.6-19L152.1,247.8z"/>
		<path id="Path_1163" class="st73" d="M123.5,245.1l12.6-31.1l15.9,33.8L123.5,245.1z"/>
		<path id="Path_1164" class="st65" d="M332.7,59.8l-19.4-1l9.7,11.6L332.7,59.8z"/>
		<path id="Path_1165" class="st61" d="M341.6,76.7l-8.9-16.9l13.5,10.6L341.6,76.7z"/>
		<path id="Path_1166" class="st64" d="M323,70.4l18.6,6.3l-8.9-16.9L323,70.4z"/>
		<path id="Path_1167" class="st61" d="M332.7,105.9L323,70.4l18.6,6.3L332.7,105.9z"/>
		<path id="Path_1168" class="st65" d="M313.3,58.8l-20.5-1l10.2,12.5L313.3,58.8z"/>
		<path id="Path_1169" class="st66" d="M323,70.4h-19.9l10.2-11.6L323,70.4z"/>
		<path id="Path_1170" class="st64" d="M332.7,105.9l-29.6-35.5H323L332.7,105.9z"/>
		<path id="Path_1171" class="st66" d="M309.8,118.5l-6.7-48.1l29.6,35.5L309.8,118.5z"/>
		<path id="Path_1172" class="st68" d="M292.8,57.9l-20.8,1.5l10.4,17.3L292.8,57.9z"/>
		<path id="Path_1173" class="st68" d="M303.1,70.4l-20.6,6.3l10.4-18.8L303.1,70.4z"/>
		<path id="Path_1174" class="st69" d="M272.1,59.4l-19.3,7l9.6,14.5L272.1,59.4z"/>
		<path id="Path_1175" class="st68" d="M282.5,76.7l23.1,11.5l-2.5-17.8L282.5,76.7z"/>
		<path id="Path_1176" class="st69" d="M262.4,80.9l20-4.2l-10.4-17.3L262.4,80.9z"/>
		<path id="Path_1177" class="st71" d="M252.8,66.4l-12,6.1l21.6,8.4L252.8,66.4z"/>
		<path id="Path_1178" class="st69" d="M282.5,76.7v17.8l-20-13.6L282.5,76.7z"/>
		<path id="Path_1179" class="st68" d="M305.6,88.2l-23.1,6.3V76.7L305.6,88.2z"/>
		<path id="Path_1180" class="st66" d="M309.8,118.5l-27.4-24l23.1-6.3L309.8,118.5z"/>
		<path id="Path_1181" class="st67" d="M286.4,140.3l-3.9-45.9l27.4,24L286.4,140.3z"/>
		<path id="Path_1182" class="st69" d="M249.6,140.3l21.8-22.9l14.9,22.9H249.6z"/>
		<path id="Path_1183" class="st68" d="M282.5,94.4l-11,22.9l14.9,22.9L282.5,94.4z"/>
		<path id="Path_1184" class="st68" d="M262.4,80.9l9,36.5l11-22.9L262.4,80.9z"/>
		<path id="Path_1185" class="st70" d="M249.6,140.3l-12.5-26.7l34.3,3.8L249.6,140.3z"/>
		<path id="Path_1186" class="st70" d="M194.7,166.2l42.4-52.6l12.5,26.7L194.7,166.2z"/>
		<path id="Path_1187" class="st70" d="M262.4,80.9l-25.3,32.7l34.3,3.8L262.4,80.9z"/>
		<path id="Path_1188" class="st70" d="M240.8,72.4l-3.7,41.2l25.3-32.7L240.8,72.4z"/>
		<path id="Path_1189" class="st72" d="M240.8,72.4l-37-11l33.3,52.2L240.8,72.4z"/>
		<path id="Path_1190" class="st73" d="M203.8,61.4L187.9,82l49.2,31.6L203.8,61.4z"/>
		<path id="Path_1191" class="st71" d="M194.7,166.2L187.9,82l49.2,31.6L194.7,166.2z"/>
		<path id="Path_1192" class="st76" d="M187.9,82l-24.1,12.4l26.6,19.2L187.9,82z"/>
		<path id="Path_1193" class="st77" d="M163.9,94.4l-10.2,27.7l36.8-8.6L163.9,94.4z"/>
		<path id="Path_1194" class="st78" d="M153.7,122.2l-11.8,13.3l12.3,8.7L153.7,122.2z"/>
		<path id="Path_1195" class="st79" d="M141.8,135.4l-25.8,8.7l9.6,22L141.8,135.4z"/>
		<path id="Path_1196" class="st77" d="M154.1,144.2l-28.5,22l16.2-30.8L154.1,144.2z"/>
		<path id="Path_1197" class="st78" d="M125.7,166.2l-19.2-8.5l9.6-13.5L125.7,166.2z"/>
		<path id="Path_1198" class="st76" d="M190.5,113.6l-36.4,30.5l-0.5-22L190.5,113.6z"/>
		<path id="Path_1199" class="st76" d="M154.1,144.2l40.6,22l-4.3-52.6L154.1,144.2z"/>
		<path id="Path_1200" class="st71" d="M167.8,195.1l-13.6-50.9l40.6,22L167.8,195.1z"/>
		<path id="Path_1201" class="st73" d="M136.2,214l17.9-69.9l13.6,50.9L136.2,214z"/>
		<path id="Path_1202" class="st77" d="M125.7,166.2l10.5,47.8l17.9-69.9L125.7,166.2z"/>
		<path id="Path_1203" class="st76" d="M123.5,245.1l-10.3-29.4l22.9-1.7L123.5,245.1z"/>
		<path id="Path_1204" class="st76" d="M101.6,241.9l11.6-26.2l10.3,29.4L101.6,241.9z"/>
		<path id="Path_1205" class="st76" d="M125.7,166.2l-12.4,49.5l22.9-1.7L125.7,166.2z"/>
		<path id="Path_1206" class="st77" d="M106.5,157.7l12,37.4l7.2-28.9L106.5,157.7z"/>
		<path id="Path_1207" class="st77" d="M113.3,215.7l-20-3.9l8.4,30.1L113.3,215.7z"/>
		<path id="Path_1208" class="st76" d="M80,245.1l13.2-33.3l8.4,30.1L80,245.1z"/>
		<path id="Path_1209" class="st79" d="M64.7,235.4l28.6-23.5L80,245.1L64.7,235.4z"/>
		<path id="Path_1210" class="st77" d="M118.4,195.1l-25.2,16.7l20,3.9L118.4,195.1z"/>
		<path id="Path_1211" class="st80" d="M106.5,157.7l-13.2,54.1l25.2-16.7L106.5,157.7z"/>
		<path id="Path_1212" class="st81" d="M106.5,157.7L91,176.6l7,16.2L106.5,157.7z"/>
		<path id="Path_1213" class="st78" d="M76.6,190.9L91,176.6l7,16.2L76.6,190.9z"/>
		<path id="Path_1214" class="st78" d="M76.6,190.9L69,204.8l28.9-12L76.6,190.9z"/>
		<path id="Path_1215" class="st80" d="M93.3,211.8L69,204.7l28.9-12L93.3,211.8z"/>
		<path id="Path_1216" class="st78" d="M64.7,235.4l4.3-30.6l24.2,7.1L64.7,235.4z"/>
		<path id="Path_1217" class="st82" d="M771.9,628.9l-6.8,16l6.5,5L771.9,628.9z"/>
		<path id="Path_1218" class="st83" d="M745.2,628.1l19.9,16.9l6.8-16L745.2,628.1z"/>
		<path id="Path_1219" class="st84" d="M745.2,628.1l-8.3,13.5l28.1,3.4L745.2,628.1z"/>
		<path id="Path_1220" class="st85" d="M721.1,645.9l15.8-4.4l3.6,14.8L721.1,645.9z"/>
		<path id="Path_1221" class="st86" d="M765.1,644.9l-24.5,11.4l-3.6-14.8L765.1,644.9z"/>
		<path id="Path_1222" class="st86" d="M765,644.9l1.4,16.8l-25.9-5.5L765,644.9z"/>
		<path id="Path_1223" class="st87" d="M721.1,645.9l-13.1,4.6l13.1,11.3L721.1,645.9z"/>
		<path id="Path_1224" class="st88" d="M740.5,656.3l-19.5,5.5v-15.9L740.5,656.3z"/>
		<path id="Path_1225" class="st89" d="M707.9,650.5l-6.7,14.7l19.9-3.4L707.9,650.5z"/>
		<path id="Path_1226" class="st87" d="M701.2,665.2l2.3,17.7l17.6-21.1L701.2,665.2z"/>
		<path id="Path_1227" class="st89" d="M703.5,682.9l2.4,8.5l12.2-4.2L703.5,682.9z"/>
		<path id="Path_1228" class="st85" d="M705.9,691.4l-8,9.8l12.9,3.8L705.9,691.4z"/>
		<path id="Path_1229" class="st90" d="M718.1,687.1l-7.3,17.8l-4.9-13.6L718.1,687.1z"/>
		<path id="Path_1230" class="st88" d="M721.1,661.8l-3,25.4l-14.6-4.2L721.1,661.8z"/>
		<path id="Path_1231" class="st91" d="M740.5,656.3l1.1,16l-20.6-10.6L740.5,656.3z"/>
		<path id="Path_1232" class="st3" d="M766.5,661.8l-24.8,10.6l-1.1-16L766.5,661.8z"/>
		<path id="Path_1233" class="st86" d="M761.6,663.9l-5.4,19l-14.6-10.6L761.6,663.9z"/>
		<path id="Path_1234" class="st85" d="M718.1,687.1l23.6-14.8l-20.6-10.6L718.1,687.1z"/>
		<path id="Path_1235" class="st88" d="M718.1,687.1l7.3,13.1l-14.7,4.7L718.1,687.1z"/>
		<path id="Path_1236" class="st3" d="M741.7,672.3l-3.1,17.7l17.7-7.2L741.7,672.3z"/>
		<path id="Path_1237" class="st83" d="M718.1,687.1l23.6-14.8l-3.1,17.7L718.1,687.1z"/>
		<path id="Path_1238" class="st86" d="M756.2,682.9l-7.4,16.5l-10.4-9.4L756.2,682.9z"/>
		<path id="Path_1239" class="st92" d="M725.4,700.3l13.1-10.2l-20.4-2.9L725.4,700.3z"/>
		<path id="Path_1240" class="st83" d="M748.9,699.4l-23.4,0.9l13.1-10.2L748.9,699.4z"/>
		<path id="Path_1241" class="st86" d="M748.9,699.4l-7.8,17.8l-15.7-16.9L748.9,699.4z"/>
		<path id="Path_1242" class="st89" d="M710.8,704.9l-20.6,7.4l7.6-11.1L710.8,704.9z"/>
		<path id="Path_1243" class="st87" d="M690.2,712.3v13.1l13.2-4.5L690.2,712.3z"/>
		<path id="Path_1244" class="st88" d="M710.8,704.9l-7.3,16l-13.2-8.6L710.8,704.9z"/>
		<path id="Path_1245" class="st84" d="M725.4,700.3l-2.2,12.7l-12.4-8L725.4,700.3z"/>
		<path id="Path_1246" class="st83" d="M741.1,717.2l-17.9-4.3l2.2-12.7L741.1,717.2z"/>
		<path id="Path_1247" class="st84" d="M703.5,720.9l19.8-8l-12.4-8L703.5,720.9z"/>
		<path id="Path_1248" class="st86" d="M741.1,717.2l-5.7,13.9l-12.1-18.2L741.1,717.2z"/>
		<path id="Path_1249" class="st84" d="M703.5,720.9l31.9,10.2l-12.1-18.2L703.5,720.9z"/>
		<path id="Path_1250" class="st90" d="M690.2,725.4l8.5,10.4l4.7-14.9L690.2,725.4z"/>
		<path id="Path_1251" class="st93" d="M692.6,728.4l-1.8,13.2l8-5.8L692.6,728.4z"/>
		<path id="Path_1252" class="st88" d="M735.3,731.1l-36.6,4.7l4.7-14.9L735.3,731.1z"/>
		<path id="Path_1253" class="st83" d="M698.8,735.8l27.9,13.9l8.7-18.6L698.8,735.8z"/>
		<path id="Path_1254" class="st4" d="M726.7,749.8l-7.3,3.3l-1.3-7.6L726.7,749.8z"/>
		<path id="Path_1255" class="st84" d="M703.5,755.8l7.5,0.2l-1.8-14.9L703.5,755.8z"/>
		<path id="Path_1256" class="st84" d="M718.1,745.5l-7.1,10.4l-1.8-14.9L718.1,745.5z"/>
		<path id="Path_1257" class="st3" d="M719.4,753l-8.4,2.9l7.1-10.4L719.4,753z"/>
		<path id="Path_1258" class="st88" d="M703.5,755.8l-4.7-19.9l10.4,5.2L703.5,755.8z"/>
		<path id="Path_1259" class="st92" d="M690.8,741.6l12.6,14.2l-4.7-19.9L690.8,741.6z"/>
		<path id="Path_1260" class="st94" d="M765,348l20.8-18.3L712.5,348H765z"/>
		<path id="Path_1261" class="st89" d="M745.2,429.4L765,348l9.4,31.4L745.2,429.4z"/>
		<path id="Path_1262" class="st90" d="M785.8,329.8L765,348l9.4,31.4L785.8,329.8z"/>
	</g>
</g>
<g id="Laag_3">
</g>
<g id="Laag_2">
	<g id="Group_332_1_" transform="translate(-46.172 -56.091)">
		<path id="Path_797_1_" class="st2" d="M765.1,605.5"/>
		<path id="Path_798_1_" class="st3" d="M765,605.5l-19.9,22.5l26.3-10.1L765,605.5z"/>
		<path id="Path_799_1_" class="st4" d="M745.2,628.1l26.7,0.9l-0.3-10.9L745.2,628.1z"/>
		<path id="Path_800_1_" class="st5" d="M765,348h-52.6l32.7,81.4L765,348z"/>
		<path id="Path_801_1_" class="st6" d="M658.3,293.1l46,36.7l-23,14.5L658.3,293.1z"/>
		<path id="Path_802_1_" class="st7" d="M712.5,348l-16.1-13.2l-7.6,40.7L712.5,348z"/>
		<path id="Path_803_1_" class="st8" d="M745.2,429.4l-56.4-53.9l23.7-27.5L745.2,429.4z"/>
		<path id="Path_804_1_" class="st9" d="M681.3,344.3l7.4,31.2l7.6-40.7L681.3,344.3z"/>
		<path id="Path_805_1_" class="st10" d="M658.3,293.1l-17.9-32l-13.2,32H658.3z"/>
		<path id="Path_806_1_" class="st11" d="M681.3,344.3l-23-51.2l-15.6,51.2H681.3z"/>
		<path id="Path_807_1_" class="st12" d="M627.2,293.1l-7.2-75.8l20.4,43.8L627.2,293.1z"/>
		<path id="Path_808_1_" class="st13" d="M688.8,375.5l-46-31.2h38.6L688.8,375.5z"/>
		<path id="Path_809_1_" class="st14" d="M627.2,293.1l15.6,51.2l15.6-51.2H627.2z"/>
		<path id="Path_810_1_" class="st15" d="M688.8,375.5L696,473l49.2-43.6L688.8,375.5z"/>
		<path id="Path_811_1_" class="st6" d="M658.3,521.2L696,473l-41.3-66.6L658.3,521.2z"/>
		<path id="Path_812_1_" class="st16" d="M688.8,375.5l-34,31L696,473L688.8,375.5z"/>
		<path id="Path_813_1_" class="st17" d="M642.8,344.3l12,62.2l34-31L642.8,344.3z"/>
		<path id="Path_814_1_" class="st14" d="M658.3,521.2l-48.9-68.6l45.3-46.1L658.3,521.2z"/>
		<path id="Path_815_1_" class="st18" d="M642.8,344.3l-33.3,44.5l45.3,17.8L642.8,344.3z"/>
		<path id="Path_816_1_" class="st19" d="M609.4,452.6v-63.9l45.3,17.8L609.4,452.6z"/>
		<path id="Path_817_1_" class="st20" d="M642.8,344.3l-33.3-25.6v70L642.8,344.3z"/>
		<path id="Path_818_1_" class="st21" d="M627.2,293.1l-17.8,25.6l33.3,25.6L627.2,293.1z"/>
		<path id="Path_819_1_" class="st22" d="M620,217.3l-28.7,37.9l35.9,37.9L620,217.3z"/>
		<path id="Path_820_1_" class="st23" d="M609.4,318.7l-18.1-63.5l35.9,37.9L609.4,318.7z"/>
		<path id="Path_821_1_" class="st24" d="M620,217.3l-28.7-17v54.9L620,217.3z"/>
		<path id="Path_822_1_" class="st23" d="M588.7,163.3l2.7,36.9l28.7,17L588.7,163.3z"/>
		<path id="Path_823_1_" class="st25" d="M591.3,255.2l-25.2-27.5l25.2-27.5V255.2z"/>
		<path id="Path_824_1_" class="st26" d="M588.7,163.3l-26.4,27l29,9.9L588.7,163.3z"/>
		<path id="Path_825_1_" class="st27" d="M609.4,318.7l-43.3-13.5l25.2-49.9L609.4,318.7z"/>
		<path id="Path_826_1_" class="st28" d="M566.1,227.7v77.4l25.2-49.9L566.1,227.7z"/>
		<path id="Path_827_1_" class="st26" d="M562.3,190.3l3.8,37.4l25.2-27.5L562.3,190.3z"/>
		<path id="Path_828_1_" class="st25" d="M588.7,163.3L576,145.9l-13.7,44.4L588.7,163.3z"/>
		<path id="Path_829_1_" class="st29" d="M597.5,137.9l-21.5,8.1l12.7,17.4L597.5,137.9z"/>
		<path id="Path_830_1_" class="st28" d="M589.9,120.7L576,145.9l21.5-8.1L589.9,120.7z"/>
		<path id="Path_831_1_" class="st30" d="M563.5,118.5l12.5,27.4l13.9-25.2L563.5,118.5z"/>
		<path id="Path_832_1_" class="st31" d="M609.4,318.7l-43.3,41.2v-54.7L609.4,318.7z"/>
		<path id="Path_833_1_" class="st22" d="M609.4,388.7l-43.3-28.8l43.3-41.2V388.7z"/>
		<path id="Path_834_1_" class="st23" d="M609.4,452.6l-47.1-39.9l47.1-24V452.6z"/>
		<path id="Path_835_1_" class="st23" d="M566.1,359.9l-3.8,52.8l47.1-24L566.1,359.9z"/>
		<path id="Path_836_1_" class="st6" d="M658.3,521.2l-60.8,11.4l11.9-80L658.3,521.2z"/>
		<path id="Path_837_1_" class="st24" d="M562.3,412.7l3.8,60.3l43.3-20.5L562.3,412.7z"/>
		<path id="Path_838_1_" class="st21" d="M597.5,532.6L566.1,473l43.3-20.5L597.5,532.6z"/>
		<path id="Path_839_1_" class="st28" d="M562.3,190.3l-24,25.4l27.8,12L562.3,190.3z"/>
		<path id="Path_840_1_" class="st26" d="M576,145.9l-33.3,11.7l19.6,32.7L576,145.9z"/>
		<path id="Path_841_1_" class="st30" d="M563.5,118.5l-20.7,39.1l33.3-11.7L563.5,118.5z"/>
		<path id="Path_842_1_" class="st26" d="M536.9,126.5l5.8,31.1l20.7-39.1L536.9,126.5z"/>
		<path id="Path_843_1_" class="st32" d="M506.3,118.5l30.6,8l5.8,31.1L506.3,118.5z"/>
		<path id="Path_844_1_" class="st16" d="M597.5,532.6l65.9,39.1l-5.1-50.5L597.5,532.6z"/>
		<path id="Path_845_1_" class="st18" d="M566.1,473l-13.9,53.4l45.3,6.1L566.1,473z"/>
		<path id="Path_846_1_" class="st33" d="M597.5,532.6l-1.6,41.7l-43.7-47.8L597.5,532.6z"/>
		<path id="Path_847_1_" class="st17" d="M663.4,571.7l-67.5,2.6l1.6-41.7L663.4,571.7z"/>
		<path id="Path_848_1_" class="st34" d="M671,615.7l-7.6-44l-67.5,2.6L671,615.7z"/>
		<path id="Path_849_1_" class="st35" d="M552.2,526.5l-13.9,47.8h57.6L552.2,526.5z"/>
		<path id="Path_850_1_" class="st16" d="M671,615.7l-17,40.7l-58.1-82.1L671,615.7z"/>
		<path id="Path_851_1_" class="st18" d="M595.9,574.2l-10,38.8l-47.6-38.8H595.9z"/>
		<path id="Path_852_1_" class="st7" d="M654,656.3l-68.1-43.2l10-38.8L654,656.3z"/>
		<path id="Path_853_1_" class="st36" d="M585.9,613.1l23.4,67.8l44.7-24.5L585.9,613.1z"/>
		<path id="Path_854_1_" class="st33" d="M538.3,574.2v49.2l47.6-10.4L538.3,574.2z"/>
		<path id="Path_855_1_" class="st18" d="M609.3,680.8l-71-57.4l47.6-10.4L609.3,680.8z"/>
		<path id="Path_856_1_" class="st37" d="M609.5,732.4l-25.9,16.9v-34.3L609.5,732.4z"/>
		<path id="Path_857_1_" class="st7" d="M609.5,732.4l-0.3-51.5l-25.7,34.1L609.5,732.4z"/>
		<path id="Path_858_1_" class="st35" d="M538.3,623.5l45.3,91.5l25.7-34.1L538.3,623.5z"/>
		<path id="Path_859_1_" class="st6" d="M583.6,749.2l-9.8,34.3l-21.6-34.3H583.6z"/>
		<path id="Path_860_1_" class="st9" d="M583.6,714.9l-31.4,34.3h31.4V714.9z"/>
		<path id="Path_861_1_" class="st18" d="M538.3,623.5L525,714.9h58.6L538.3,623.5z"/>
		<path id="Path_862_1_" class="st11" d="M552.2,749.2L525,714.9h58.6L552.2,749.2z"/>
		<path id="Path_863_1_" class="st7" d="M573.8,783.5l-21.6,23v-57.3L573.8,783.5z"/>
		<path id="Path_864_1_" class="st35" d="M525,714.9l-8,41.9l35.2-7.6L525,714.9z"/>
		<path id="Path_865_1_" class="st38" d="M552.2,806.5L517,756.8l35.2-7.6V806.5z"/>
		<path id="Path_866_1_" class="st17" d="M517,756.8l-10.5,82l45.8-32.3L517,756.8z"/>
		<path id="Path_867_1_" class="st16" d="M506.5,838.8l-44.4,7l55-89L506.5,838.8z"/>
		<path id="Path_868_1_" class="st14" d="M517,756.8l-91.2,70.9l36.3,18.1L517,756.8z"/>
		<path id="Path_869_1_" class="st39" d="M542.8,157.6l-43.6-7l7.1-32.1L542.8,157.6z"/>
		<path id="Path_870_1_" class="st40" d="M562.3,190.3l-19.6-32.7l-4.4,58.1L562.3,190.3z"/>
		<path id="Path_871_1_" class="st40" d="M499.2,150.6l39.1,65.1l4.4-58.1L499.2,150.6z"/>
		<path id="Path_872_1_" class="st25" d="M566.1,227.7l-27.8,33.4l27.8,44.1V227.7z"/>
		<path id="Path_873_1_" class="st41" d="M538.3,215.7v45.4l27.8-33.4L538.3,215.7z"/>
		<path id="Path_874_1_" class="st28" d="M566.1,305.1l-27.8,24.6l27.8,30.1V305.1z"/>
		<path id="Path_875_1_" class="st29" d="M562.3,412.7L525,386.3l41.1-26.4L562.3,412.7z"/>
		<path id="Path_876_1_" class="st26" d="M538.3,329.8L525,386.3l41.1-26.4L538.3,329.8z"/>
		<path id="Path_877_1_" class="st25" d="M562.3,412.7l-32.9,30.2l-4.4-56.6L562.3,412.7z"/>
		<path id="Path_878_1_" class="st25" d="M566.1,473l-36.7-30.2l32.9-30.2L566.1,473z"/>
		<path id="Path_879_1_" class="st27" d="M552.2,526.5L538.3,478l-8.9-35.2l36.7,30.2L552.2,526.5z"/>
		<path id="Path_880_1_" class="st28" d="M525,386.3l-25.8,34.4l30.2,22.2L525,386.3z"/>
		<path id="Path_881_1_" class="st26" d="M538.3,329.8l-39.1,5l25.8,51.5L538.3,329.8z"/>
		<path id="Path_882_1_" class="st26" d="M538.3,261.1v68.7l27.8-24.6L538.3,261.1z"/>
		<path id="Path_883_1_" class="st30" d="M499.2,334.8l39.1-73.7v68.7L499.2,334.8z"/>
		<path id="Path_884_1_" class="st42" d="M499.2,150.6l-18.6-39.8l25.7,7.7L499.2,150.6z"/>
		<path id="Path_885_1_" class="st43" d="M480.6,110.8l-19.8-4.3l5.5,24.2L480.6,110.8z"/>
		<path id="Path_886_1_" class="st44" d="M460.8,106.5l-14.2,6.7l19.7,17.5L460.8,106.5z"/>
		<path id="Path_887_1_" class="st43" d="M447.6,125.3l18.7,5.4l-19.7-17.5L447.6,125.3z"/>
		<path id="Path_888_1_" class="st45" d="M480.6,110.8l-14.3,19.9l32.9,19.9L480.6,110.8z"/>
		<path id="Path_889_1_" class="st2" d="M447.6,125.3"/>
		<path id="Path_890_1_" class="st43" d="M466.3,130.7l2,22.3l30.9-2.4L466.3,130.7z"/>
		<path id="Path_891_1_" class="st46" d="M538.3,215.7l-70-62.7l30.9-2.4L538.3,215.7z"/>
		<path id="Path_892_1_" class="st43" d="M447.6,125.3l20.7,27.7l-2-22.3L447.6,125.3z"/>
		<path id="Path_893_1_" class="st47" d="M538.3,215.7l-32,16.7l32,28.7V215.7z"/>
		<path id="Path_894_1_" class="st33" d="M517,756.8l-102.5,26.5l11.2,44.3L517,756.8z"/>
		<path id="Path_895_1_" class="st18" d="M525,714.9l-8,41.9l-37.3-34.9L525,714.9z"/>
		<path id="Path_896_1_" class="st2" d="M414.5,783.3"/>
		<path id="Path_897_1_" class="st33" d="M479.6,721.9l-16.5,48.9l53.8-13.9L479.6,721.9z"/>
		<path id="Path_898_1_" class="st33" d="M463.1,770.7L438,732.1l41.7-10.2L463.1,770.7z"/>
		<path id="Path_899_1_" class="st48" d="M414.5,783.3l23.5-51.2l25.2,38.7L414.5,783.3z"/>
		<path id="Path_900_1_" class="st22" d="M397,758.4l41-26.3l-23.5,51.2L397,758.4z"/>
		<path id="Path_901_1_" class="st12" d="M479.6,721.9l17.3-34.8l28,27.9L479.6,721.9z"/>
		<path id="Path_902_1_" class="st10" d="M497,687.1l36.5-30.7l-8.5,58.6L497,687.1z"/>
		<path id="Path_903_1_" class="st28" d="M438,732.1l-48-3.6l7,29.9L438,732.1z"/>
		<path id="Path_904_1_" class="st12" d="M497,687.1l-33.8,2.3l16.5,32.5L497,687.1z"/>
		<path id="Path_905_1_" class="st24" d="M438,732.1l25.2-42.7l16.5,32.5L438,732.1z"/>
		<path id="Path_906_1_" class="st29" d="M390,728.5l32.6-24l15.3,27.6L390,728.5z"/>
		<path id="Path_907_1_" class="st22" d="M463.1,689.4l-40.5,15.1l15.3,27.6L463.1,689.4z"/>
		<path id="Path_908_1_" class="st28" d="M384.9,708.2l5.1,20.3l32.6-24L384.9,708.2z"/>
		<path id="Path_909_1_" class="st40" d="M367.7,677l17.2,31.2l17.8-31.2H367.7z"/>
		<path id="Path_910_1_" class="st26" d="M422.6,704.5l-20-27.5l-17.8,31.2L422.6,704.5z"/>
		<path id="Path_911_1_" class="st25" d="M463.1,689.4L438,666.7l-15.3,37.7L463.1,689.4z"/>
		<path id="Path_912_1_" class="st25" d="M402.7,677l35.3-10.3l-15.3,37.7L402.7,677z"/>
		<path id="Path_913_1_" class="st12" d="M497,687.1l-5.3-40.1l41.9,9.4L497,687.1z"/>
		<path id="Path_914_1_" class="st48" d="M463.1,689.4l28.5-42.4l5.3,40.1L463.1,689.4z"/>
		<path id="Path_915_1_" class="st23" d="M438,666.7l53.7-19.8l-28.5,42.4L438,666.7z"/>
		<path id="Path_916_1_" class="st41" d="M402.7,677l7.6-30.1l27.7,19.8L402.7,677z"/>
		<path id="Path_917_1_" class="st40" d="M367.7,677l42.6-30.1l-7.6,30.1H367.7z"/>
		<path id="Path_918_1_" class="st20" d="M491.6,646.9l46.7-23.5l-4.8,32.9L491.6,646.9z"/>
		<path id="Path_919_1_" class="st25" d="M438,666.7l15-33.7l38.7,13.9L438,666.7z"/>
		<path id="Path_920_1_" class="st41" d="M410.3,646.9l42.7-13.9l-15,33.7L410.3,646.9z"/>
		<path id="Path_921_1_" class="st27" d="M491.6,646.9l-7.7-29.6L453,633L491.6,646.9z"/>
		<path id="Path_922_1_" class="st28" d="M410.3,646.9l17.3-31.7l25.3,17.8L410.3,646.9z"/>
		<path id="Path_923_1_" class="st22" d="M538.3,623.5l-54.3-6.1l7.7,29.6L538.3,623.5z"/>
		<path id="Path_924_1_" class="st24" d="M538.3,574.2L484,617.4l54.3,6.1V574.2z"/>
		<path id="Path_925_1_" class="st28" d="M427.6,615.3l56.3,2.1L453,633L427.6,615.3z"/>
		<path id="Path_926_1_" class="st40" d="M410.3,646.9L397,619.1l30.6-3.8L410.3,646.9z"/>
		<path id="Path_927_1_" class="st40" d="M367.7,677l29.4-58l13.3,27.9L367.7,677z"/>
		<path id="Path_928_1_" class="st48" d="M552.2,526.5l-34.2,6.1l20.3,41.7L552.2,526.5z"/>
		<path id="Path_929_1_" class="st22" d="M538.3,478L518,532.6l34.2-6.1L538.3,478z"/>
		<path id="Path_930_1_" class="st22" d="M484,617.4l34-84.8l20.3,41.7L484,617.4z"/>
		<path id="Path_931_1_" class="st26" d="M427.6,615.3l76.4-47.8l-20,49.9L427.6,615.3z"/>
		<path id="Path_932_1_" class="st25" d="M518,532.6l-34,5.8l20,29.1L518,532.6z"/>
		<path id="Path_933_1_" class="st29" d="M538.3,478l-37.3-2l28.4-33.2L538.3,478z"/>
		<path id="Path_934_1_" class="st25" d="M518,532.6L501,476l37.3,2L518,532.6z"/>
		<path id="Path_935_1_" class="st41" d="M499.2,420.6L501,476l28.4-33.2L499.2,420.6z"/>
		<path id="Path_936_1_" class="st40" d="M506.3,232.4L504,185l34.3,30.7L506.3,232.4z"/>
		<path id="Path_937_1_" class="st43" d="M468.3,153l-7.5,45.1L504,185L468.3,153z"/>
		<path id="Path_938_1_" class="st46" d="M506.3,232.4l-45.5-34.2L504,185L506.3,232.4z"/>
		<path id="Path_939_1_" class="st40" d="M538.3,261.1l-32-28.7l11.7,67L538.3,261.1z"/>
		<path id="Path_940_1_" class="st49" d="M460.8,198.2v53l45.5-18.8L460.8,198.2z"/>
		<path id="Path_941_1_" class="st47" d="M518,299.4l-57.2-48.3l45.5-18.8L518,299.4z"/>
		<path id="Path_942_1_" class="st50" d="M499.2,334.8l-10.9-60.5l29.7,25.1L499.2,334.8z"/>
		<path id="Path_943_1_" class="st40" d="M499.2,420.6v-85.9l25.8,51.5L499.2,420.6z"/>
		<path id="Path_944_1_" class="st30" d="M501,476l-34.7-33.2l32.9-22.2L501,476z"/>
		<path id="Path_945_1_" class="st40" d="M499.2,379.6l-32.9,63.3l32.9-22.2V379.6z"/>
		<path id="Path_946_1_" class="st47" d="M499.2,334.8l-26.9,29.8l26.9,15L499.2,334.8z"/>
		<path id="Path_947_1_" class="st32" d="M488.3,274.3l-32.4,44.4l43.4,16.1L488.3,274.3z"/>
		<path id="Path_948_1_" class="st45" d="M460.8,251.1l-5,67.6l32.4-44.4L460.8,251.1z"/>
		<path id="Path_949_1_" class="st39" d="M472.3,364.5l-16.5-45.9l43.4,16.1L472.3,364.5z"/>
		<path id="Path_950_1_" class="st32" d="M466.3,442.9l6-78.3l26.9,15L466.3,442.9z"/>
		<path id="Path_951_1_" class="st29" d="M484,538.4l17-62.3l17,56.5L484,538.4z"/>
		<path id="Path_952_1_" class="st26" d="M427.6,615.3l56.3-76.9l20,29.1L427.6,615.3z"/>
		<path id="Path_953_1_" class="st30" d="M397,619l13.3-35.7l17.3,31.9L397,619z"/>
		<path id="Path_954_1_" class="st40" d="M484,538.4l-73.7,45l17.3,31.9L484,538.4z"/>
		<path id="Path_955_1_" class="st51" d="M367.7,677l-9.2-25.7L397,619L367.7,677z"/>
		<path id="Path_956_1_" class="st50" d="M397,619.1l-27.7-8l-10.8,40.2L397,619.1z"/>
		<path id="Path_957_1_" class="st47" d="M410.3,583.4l-41,27.7l27.7,8L410.3,583.4z"/>
		<path id="Path_958_1_" class="st47" d="M410.3,583.4l-37-16.5l-4,44.2L410.3,583.4z"/>
		<path id="Path_959_1_" class="st26" d="M484,538.4l-63.7-5.8l-10,50.8L484,538.4z"/>
		<path id="Path_960_1_" class="st26" d="M501,476l-45.2,12.2l28.2,50.1L501,476z"/>
		<path id="Path_961_1_" class="st51" d="M420.3,532.6l35.5-44.3l28.2,50.1L420.3,532.6z"/>
		<path id="Path_962_1_" class="st39" d="M373.3,566.8l47-34.2l-10,50.8L373.3,566.8z"/>
		<path id="Path_963_1_" class="st51" d="M466.3,442.9l-10.5,45.4L501,476L466.3,442.9z"/>
		<path id="Path_964_1_" class="st32" d="M420.3,532.6l-59.1-2l12.2,36.3L420.3,532.6z"/>
		<path id="Path_965_1_" class="st32" d="M455.8,488.3L415,480l5.3,52.5L455.8,488.3z"/>
		<path id="Path_966_1_" class="st47" d="M466.3,442.9L415,480l40.8,8.2L466.3,442.9z"/>
		<path id="Path_967_1_" class="st50" d="M361.2,530.5L415,480l5.3,52.5L361.2,530.5z"/>
		<path id="Path_968_1_" class="st39" d="M466.3,442.9l-34.7-18.6L415,480L466.3,442.9z"/>
		<path id="Path_969_1_" class="st32" d="M472.3,364.5l-40.7,59.7l34.7,18.6L472.3,364.5z"/>
		<path id="Path_970_1_" class="st39" d="M455.8,318.7l-24.2,41.2l40.7,4.7L455.8,318.7z"/>
		<path id="Path_971_1_" class="st39" d="M431.6,424.3v-64.4l40.7,4.7L431.6,424.3z"/>
		<path id="Path_972_1_" class="st49" d="M415,480l-48.7-10.8l-5.1,61.3L415,480z"/>
		<path id="Path_973_1_" class="st45" d="M431.6,424.3l-65.3,45L415,480L431.6,424.3z"/>
		<path id="Path_974_1_" class="st44" d="M366.3,469.2l-37,19.1l31.8,42.3L366.3,469.2z"/>
		<path id="Path_975_1_" class="st44" d="M366.3,469.2l-33.9-12.6l-3,31.6L366.3,469.2z"/>
		<path id="Path_976_1_" class="st52" d="M332.4,456.6l26.1-23l7.8,35.6L332.4,456.6z"/>
		<path id="Path_977_1_" class="st43" d="M431.6,424.3l-73.1,9.3l7.8,35.6L431.6,424.3z"/>
		<path id="Path_978_1_" class="st53" d="M358.5,433.6l-22.3,0.8l-3.9,22.2L358.5,433.6z"/>
		<path id="Path_979_1_" class="st43" d="M358.5,433.6l32.2-36.9l40.9,27.6L358.5,433.6z"/>
		<path id="Path_980_1_" class="st49" d="M431.6,359.9l-40.9,36.8l40.9,27.6V359.9z"/>
		<path id="Path_981_1_" class="st43" d="M358.5,433.6l-3.3-36.9h35.6L358.5,433.6z"/>
		<path id="Path_982_1_" class="st54" d="M431.6,359.9l-43.6-9.8l2.7,46.7L431.6,359.9z"/>
		<path id="Path_983_1_" class="st53" d="M355.2,396.7l-19,37.7l22.3-0.8L355.2,396.7z"/>
		<path id="Path_984_1_" class="st43" d="M455.8,318.7l-24.2-9.1v50.3L455.8,318.7z"/>
		<path id="Path_985_1_" class="st55" d="M336.2,434.4l-13.9-15.1l32.8-22.6L336.2,434.4z"/>
		<path id="Path_986_1_" class="st44" d="M388.1,350l-32.9,46.7h35.6L388.1,350z"/>
		<path id="Path_987_1_" class="st56" d="M431.6,309.6L388.1,350l43.6,9.8V309.6z"/>
		<path id="Path_988_1_" class="st45" d="M460.8,251.1l-29.2,58.5l24.2,9.1L460.8,251.1z"/>
		<path id="Path_989_1_" class="st55" d="M355.2,396.7l-9.8-46.7h42.6L355.2,396.7z"/>
		<path id="Path_990_1_" class="st53" d="M322.3,419.3l4-30.6l28.9,8L322.3,419.3z"/>
		<path id="Path_991_1_" class="st55" d="M345.4,350l-19.1,38.7l28.9,8L345.4,350z"/>
		<path id="Path_992_1_" class="st57" d="M322.3,419.3l-29,1.3l33-31.9L322.3,419.3z"/>
		<path id="Path_993_1_" class="st53" d="M345.4,350l27.5-31.4l15.1,31.4H345.4z"/>
		<path id="Path_994_1_" class="st58" d="M326.3,388.7l-16.5-31.5l35.6-7.1L326.3,388.7z"/>
		<path id="Path_995_1_" class="st53" d="M373,318.7l58.7-9.1L388.1,350L373,318.7z"/>
		<path id="Path_996_1_" class="st43" d="M468.3,153l-24.6-5.7l3.9-22.1L468.3,153z"/>
		<path id="Path_997_1_" class="st59" d="M326.3,388.7l-45.6,12.1l12.6,19.8L326.3,388.7z"/>
		<path id="Path_998_1_" class="st59" d="M309.8,357.2l-29.1,43.7l45.6-12.1L309.8,357.2z"/>
		<path id="Path_999_1_" class="st59" d="M345.4,350l-19.1-27.1l-16.5,34.2L345.4,350z"/>
		<path id="Path_1000_1_" class="st55" d="M373,318.7l-46.7,4.3l19.1,27.1L373,318.7z"/>
		<path id="Path_1001_1_" class="st44" d="M431.6,309.6l-36.6-26.2L373,318.7L431.6,309.6z"/>
		<path id="Path_1002_1_" class="st60" d="M460.8,251.1l-65.7,32.2l36.6,26.2L460.8,251.1z"/>
		<path id="Path_1003_1_" class="st49" d="M460.8,198.2L430,222.7l30.8,28.4V198.2z"/>
		<path id="Path_1004_1_" class="st43" d="M468.3,153l-22.1,15.1l14.6,30L468.3,153z"/>
		<path id="Path_1005_1_" class="st43" d="M443.7,147.3l2.5,20.8l22.1-15.1L443.7,147.3z"/>
		<path id="Path_1006_1_" class="st54" d="M430,222.7l16.3-54.6l14.6,30L430,222.7z"/>
		<path id="Path_1007_1_" class="st44" d="M443.7,147.3l-8.4-15.3l12.3-6.7L443.7,147.3z"/>
		<path id="Path_1008_1_" class="st44" d="M446.2,168.1l-23.9-10.5l21.4-10.2L446.2,168.1z"/>
		<path id="Path_1009_1_" class="st52" d="M435.3,132l-14.7-7.3l-2.8,14.5L435.3,132z"/>
		<path id="Path_1010_1_" class="st52" d="M422.3,157.6l13-25.6l8.4,15.3L422.3,157.6z"/>
		<path id="Path_1011_1_" class="st52" d="M417.9,139.2l4.4,18.4l13-25.6L417.9,139.2z"/>
		<path id="Path_1012_1_" class="st53" d="M420.6,124.7l-10.4-1.6l7.6,16L420.6,124.7z"/>
		<path id="Path_1013_1_" class="st44" d="M422.3,157.6l16.6,35l7.3-24.4L422.3,157.6z"/>
		<path id="Path_1014_1_" class="st52" d="M438.9,192.6l-28.7-5.9l12-29.1L438.9,192.6z"/>
		<path id="Path_1015_1_" class="st44" d="M430,222.7l-19.7-36.1l28.7,5.9L430,222.7z"/>
		<path id="Path_1016_1_" class="st59" d="M280.7,400.8l-17.8-41l46.8-2.7L280.7,400.8z"/>
		<path id="Path_1017_1_" class="st61" d="M243.2,400.6l19.7-40.7l17.8,41L243.2,400.6z"/>
		<path id="Path_1018_1_" class="st59" d="M309.8,357.2l-16.5-27.4l33-6.8L309.8,357.2z"/>
		<path id="Path_1019_1_" class="st61" d="M263,359.9l30.4-30.1l16.5,27.4L263,359.9z"/>
		<path id="Path_1020_1_" class="st53" d="M373,318.7l-12-31.7l34.1-3.6L373,318.7z"/>
		<path id="Path_1021_1_" class="st62" d="M326.3,322.9l34.7-36l12,31.7L326.3,322.9z"/>
		<path id="Path_1022_1_" class="st59" d="M293.3,329.8l16.5-25.2l16.5,18.4L293.3,329.8z"/>
		<path id="Path_1023_1_" class="st62" d="M361,286.9l-51.2,17.6l16.5,18.4L361,286.9z"/>
		<path id="Path_1024_1_" class="st52" d="M430,222.7l-34.9,60.7l65.7-32.2L430,222.7z"/>
		<path id="Path_1025_1_" class="st52" d="M410.3,186.6l19.7,36.1L390.7,209L410.3,186.6z"/>
		<path id="Path_1026_1_" class="st53" d="M417.9,139.2l-22.8-2.8l15.2-13.2L417.9,139.2z"/>
		<path id="Path_1027_1_" class="st55" d="M403,111l-7.9,25.3l15.2-13.2L403,111z"/>
		<path id="Path_1028_1_" class="st53" d="M417.9,139.2L402.7,153l-7.6-16.7L417.9,139.2z"/>
		<path id="Path_1029_1_" class="st53" d="M422.3,157.6l-19.6-4.6l15.2-13.9L422.3,157.6z"/>
		<path id="Path_1030_1_" class="st53" d="M410.3,186.6l-7.6-33.6l19.6,4.6L410.3,186.6z"/>
		<path id="Path_1031_1_" class="st55" d="M390.7,209l-6.8-27.2l26.3,4.8L390.7,209z"/>
		<path id="Path_1032_1_" class="st53" d="M402.7,153L384,181.8l26.3,4.8L402.7,153z"/>
		<path id="Path_1033_1_" class="st57" d="M403,111l-15.2-5.1l7.3,30.4L403,111z"/>
		<path id="Path_1034_1_" class="st63" d="M402.7,153l-18.7-2.4v31.1L402.7,153z"/>
		<path id="Path_1035_1_" class="st55" d="M395.1,136.3L384,150.7l18.7,2.4L395.1,136.3z"/>
		<path id="Path_1036_1_" class="st55" d="M390.7,209l19.6,47.8l19.6-34.1L390.7,209z"/>
		<path id="Path_1037_1_" class="st55" d="M395.1,283.4l-13.8-32.2l29.1,5.7L395.1,283.4z"/>
		<path id="Path_1038_1_" class="st55" d="M361,286.9l20.3-35.8l13.8,32.2L361,286.9z"/>
		<path id="Path_1039_1_" class="st53" d="M390.7,209l-9.4,42.1l29.1,5.7L390.7,209z"/>
		<path id="Path_1040_1_" class="st57" d="M361,286.9l-15.5-35.8h35.9L361,286.9z"/>
		<path id="Path_1041_1_" class="st63" d="M390.7,209l-29.8,9.7l20.3,32.4L390.7,209z"/>
		<path id="Path_1042_1_" class="st62" d="M345.4,251.1l15.5-32.4l20.3,32.4H345.4z"/>
		<path id="Path_1043_1_" class="st59" d="M309.8,304.5l35.6-53.4l15.5,35.8L309.8,304.5z"/>
		<path id="Path_1044_1_" class="st62" d="M384,181.8l-23,36.9l29.8-9.7L384,181.8z"/>
		<path id="Path_1045_1_" class="st59" d="M387.8,105.9l-16.5-1.8l23.8,32.2L387.8,105.9z"/>
		<path id="Path_1046_1_" class="st62" d="M384,150.7l-0.8-30.5l11.9,16.1L384,150.7z"/>
		<path id="Path_1047_1_" class="st61" d="M371.3,104.1l-16.9-11.3l-2.3,30.3L371.3,104.1z"/>
		<path id="Path_1048_1_" class="st61" d="M354.4,92.8l10.4-12.1l-23.2-4L354.4,92.8z"/>
		<path id="Path_1049_1_" class="st58" d="M352.1,123.1l31.1-2.9l-11.9-16.1L352.1,123.1z"/>
		<path id="Path_1050_1_" class="st59" d="M384,150.7l-31.9-27.5l31.1-2.9L384,150.7z"/>
		<path id="Path_1051_1_" class="st64" d="M354.4,92.8l-21.6,13.1l8.8-29.2L354.4,92.8z"/>
		<path id="Path_1052_1_" class="st61" d="M352.1,123.1l-19.4-17.2l21.6-13.1L352.1,123.1z"/>
		<path id="Path_1053_1_" class="st59" d="M384,150.7l-34.1-0.1l2.2-27.5L384,150.7z"/>
		<path id="Path_1054_1_" class="st63" d="M384,181.8l-34.1-31.2l34.1,0.1V181.8z"/>
		<path id="Path_1055_1_" class="st61" d="M352.1,123.1l-20.3,12.9l1-30.2L352.1,123.1z"/>
		<path id="Path_1056_1_" class="st61" d="M349.9,150.6l-18.1-14.5l20.3-12.9L349.9,150.6z"/>
		<path id="Path_1057_1_" class="st59" d="M364.8,80.7l-4.7-10.3l-18.6,6.3L364.8,80.7z"/>
		<path id="Path_1058_1_" class="st61" d="M360.1,70.4l7.9-8.8l-11.3-5.5L360.1,70.4z"/>
		<path id="Path_1059_1_" class="st61" d="M341.6,76.7l15.2-20.6l3.4,14.3L341.6,76.7z"/>
		<path id="Path_1060_1_" class="st61" d="M343.5,57.9l2.6,12.5l10.5-14.3L343.5,57.9z"/>
		<path id="Path_1061_1_" class="st65" d="M243.2,400.6l-28.9,11.6V379L243.2,400.6z"/>
		<path id="Path_1062_1_" class="st64" d="M263,359.9L214.4,379l28.9,21.6L263,359.9z"/>
		<path id="Path_1063_1_" class="st65" d="M214.4,412.1l-24.7-1.6l24.7-31.6V412.1z"/>
		<path id="Path_1064_1_" class="st64" d="M263,359.9l2.4-37.8l27.9,7.7L263,359.9z"/>
		<path id="Path_1065_1_" class="st66" d="M189.7,410.6l-4.3-31.6h29L189.7,410.6z"/>
		<path id="Path_1066_1_" class="st65" d="M263,359.9l-24.3-19.8L214.4,379L263,359.9z"/>
		<path id="Path_1067_1_" class="st64" d="M265.4,322l-26.8,18l24.3,19.8L265.4,322z"/>
		<path id="Path_1068_1_" class="st67" d="M214.4,379l-10.3-34.2l34.6-4.8L214.4,379z"/>
		<path id="Path_1069_1_" class="st66" d="M185.4,379l18.7-34.2l10.3,34.2H185.4z"/>
		<path id="Path_1070_1_" class="st67" d="M189.7,410.6l-22.9,1.4l18.6-32.9L189.7,410.6z"/>
		<path id="Path_1071_1_" class="st68" d="M166.8,412l-17.9,7.4v-30.6L166.8,412z"/>
		<path id="Path_1072_1_" class="st67" d="M185.4,379l-36.6,9.7l17.9,23.2L185.4,379z"/>
		<path id="Path_1073_1_" class="st69" d="M148.8,419.3l-25.3-13.6l25.3-17V419.3z"/>
		<path id="Path_1074_1_" class="st70" d="M123.5,405.7v-34l25.3,17L123.5,405.7z"/>
		<path id="Path_1075_1_" class="st70" d="M123.5,405.7l-24.3-20l24.3-14L123.5,405.7z"/>
		<path id="Path_1076_1_" class="st69" d="M148.8,388.7l15.7-26.8l20.9,17.1L148.8,388.7z"/>
		<path id="Path_1077_1_" class="st69" d="M123.5,371.7l41-9.8l-15.7,26.8L123.5,371.7z"/>
		<path id="Path_1078_1_" class="st67" d="M204.1,344.8l-39.6,17.1l20.9,17.1L204.1,344.8z"/>
		<path id="Path_1079_1_" class="st70" d="M123.5,371.7l-38.3,1.4l13.9,12.5L123.5,371.7z"/>
		<path id="Path_1080_1_" class="st70" d="M164.5,361.9l-28.3-22.5l-12.6,32.3L164.5,361.9z"/>
		<path id="Path_1081_1_" class="st70" d="M85.3,373.1l17.2-17.6l21.1,16.2L85.3,373.1z"/>
		<path id="Path_1082_1_" class="st71" d="M102.5,355.5L80,354l5.2,19.1L102.5,355.5z"/>
		<path id="Path_1083_1_" class="st71" d="M80,354l-17.3-15.8l21.7-6L80,354z"/>
		<path id="Path_1084_1_" class="st71" d="M102.5,355.5l-18.1-23.3L80,354L102.5,355.5z"/>
		<path id="Path_1085_1_" class="st72" d="M136.2,339.4l-33.7,16.2l21.1,16.2L136.2,339.4z"/>
		<path id="Path_1086_1_" class="st68" d="M164.5,361.9l7.6-29.7l32,12.6L164.5,361.9z"/>
		<path id="Path_1087_1_" class="st72" d="M136.2,339.4l35.9-7.1l-7.6,29.7L136.2,339.4z"/>
		<path id="Path_1088_1_" class="st71" d="M102.5,355.5l8.9-32.6l24.8,16.4L102.5,355.5z"/>
		<path id="Path_1089_1_" class="st71" d="M84.4,332.3l26.9-9.3l-8.9,32.6L84.4,332.3z"/>
		<path id="Path_1090_1_" class="st73" d="M62.8,338.2l-11.6-15.3l18.6-5.8L62.8,338.2z"/>
		<path id="Path_1091_1_" class="st73" d="M84.4,332.3l-14.6-15.1l-7.1,21.1L84.4,332.3z"/>
		<path id="Path_1092_1_" class="st73" d="M111.4,322.9l-18.1-15.4l-8.8,24.7L111.4,322.9z"/>
		<path id="Path_1093_1_" class="st73" d="M51.2,322.9l1-20.4l17.6,14.6L51.2,322.9z"/>
		<path id="Path_1094_1_" class="st73" d="M93.3,307.5l-23.4,9.6l14.6,15.1L93.3,307.5z"/>
		<path id="Path_1095_1_" class="st74" d="M52.2,302.6l17.6-6.9v21.5L52.2,302.6z"/>
		<path id="Path_1096_1_" class="st73" d="M93.3,307.5l-23.4-11.9v21.5L93.3,307.5z"/>
		<path id="Path_1097_1_" class="st62" d="M349.9,150.6l11.1,68.1l23-36.9L349.9,150.6z"/>
		<path id="Path_1098_1_" class="st64" d="M331.7,136.1l-21.9-17.6l22.9-12.6L331.7,136.1z"/>
		<path id="Path_1099_1_" class="st59" d="M361,218.7l-30.1-3l14.6,35.4L361,218.7z"/>
		<path id="Path_1100_1_" class="st64" d="M309.8,304.5L293.3,253l52.1-1.9L309.8,304.5z"/>
		<path id="Path_1101_1_" class="st61" d="M330.9,215.7L293.3,253l52.1-1.9L330.9,215.7z"/>
		<path id="Path_1102_1_" class="st61" d="M349.9,150.6l-19,65.1l30.1,3L349.9,150.6z"/>
		<path id="Path_1103_1_" class="st61" d="M309.8,304.5L265.4,322l27.9,7.7L309.8,304.5z"/>
		<path id="Path_1104_1_" class="st61" d="M293.3,253l-27.9,69l44.4-17.5L293.3,253z"/>
		<path id="Path_1105_1_" class="st65" d="M238.7,340.1l-4.8-35.5l31.6,17.5L238.7,340.1z"/>
		<path id="Path_1106_1_" class="st67" d="M204.1,344.8l29.8-40.3l4.8,35.5L204.1,344.8z"/>
		<path id="Path_1107_1_" class="st75" d="M293.3,253l-3-44l40.6,6.7L293.3,253z"/>
		<path id="Path_1108_1_" class="st64" d="M349.9,150.6l-42.7,19.2l23.7,45.9L349.9,150.6z"/>
		<path id="Path_1109_1_" class="st65" d="M290.3,209l16.9-39.2l23.7,45.9L290.3,209z"/>
		<path id="Path_1110_1_" class="st64" d="M309.8,118.5l-2.6,51.4l42.7-19.2L309.8,118.5z"/>
		<path id="Path_1111_1_" class="st76" d="M69.8,295.7l-23.7-1.7l6,8.6L69.8,295.7z"/>
		<path id="Path_1112_1_" class="st76" d="M46.2,293.9l12.9-19.4l10.8,21.2L46.2,293.9z"/>
		<path id="Path_1113_1_" class="st71" d="M93.3,307.5l24.1-5l-6,20.4L93.3,307.5z"/>
		<path id="Path_1114_1_" class="st69" d="M204.1,344.8l-14.4-45.8l44.2,5.5L204.1,344.8z"/>
		<path id="Path_1115_1_" class="st69" d="M172.1,332.3l17.6-33.2l14.4,45.8L172.1,332.3z"/>
		<path id="Path_1116_1_" class="st72" d="M136.2,339.4l9.7-36.8l26.2,29.7L136.2,339.4z"/>
		<path id="Path_1117_1_" class="st72" d="M111.4,322.9l34.5-20.4l-9.7,36.8L111.4,322.9z"/>
		<path id="Path_1118_1_" class="st72" d="M189.7,299.1l-43.8,3.5l26.2,29.7L189.7,299.1z"/>
		<path id="Path_1119_1_" class="st71" d="M117.4,302.6h28.4l-34.5,20.4L117.4,302.6z"/>
		<path id="Path_1120_1_" class="st75" d="M233.8,304.5l45.5-17l-14,34.5L233.8,304.5z"/>
		<path id="Path_1121_1_" class="st67" d="M279.4,287.5l-29.7-20.3l-15.8,37.3L279.4,287.5z"/>
		<path id="Path_1122_1_" class="st65" d="M293.3,253l-43.7,14.2l29.7,20.3L293.3,253z"/>
		<path id="Path_1123_1_" class="st65" d="M290.3,209l-40.7,58.2l43.7-14.2L290.3,209z"/>
		<path id="Path_1124_1_" class="st67" d="M189.7,299.1l59.9-31.8l-15.8,37.3L189.7,299.1z"/>
		<path id="Path_1125_1_" class="st68" d="M290.3,209l-40.7,6.7v51.6L290.3,209z"/>
		<path id="Path_1126_1_" class="st76" d="M59.1,274.5l7.2-21.4L80,263.8L59.1,274.5z"/>
		<path id="Path_1127_1_" class="st76" d="M69.8,295.7L80,263.8l-21,10.7L69.8,295.7z"/>
		<path id="Path_1128_1_" class="st77" d="M66.3,253l13.8-7.9v18.7L66.3,253z"/>
		<path id="Path_1129_1_" class="st74" d="M69.8,295.7l22.9-12.4l0.6,24.3L69.8,295.7z"/>
		<path id="Path_1130_1_" class="st76" d="M80,263.8l12.7,19.5l-22.9,12.4L80,263.8z"/>
		<path id="Path_1131_1_" class="st73" d="M117.4,302.6l-24.7-19.3l0.6,24.3L117.4,302.6z"/>
		<path id="Path_1132_1_" class="st70" d="M189.7,299.1l-22.9-26.4l-20.9,29.9L189.7,299.1z"/>
		<path id="Path_1133_1_" class="st70" d="M249.6,267.2l-49.8-19.4l-10.2,51.2L249.6,267.2z"/>
		<path id="Path_1134_1_" class="st72" d="M166.8,272.7l33.1-24.9l-10.2,51.2L166.8,272.7z"/>
		<path id="Path_1135_1_" class="st71" d="M145.8,302.6l-12-32.3l32.9,2.4L145.8,302.6z"/>
		<path id="Path_1136_1_" class="st71" d="M117.4,302.6l16.4-32.3l12,32.3L117.4,302.6z"/>
		<path id="Path_1137_1_" class="st73" d="M92.7,283.3l41.2-13l-16.4,32.3L92.7,283.3z"/>
		<path id="Path_1138_1_" class="st71" d="M166.8,272.7l-14.7-24.9l-18.2,22.5L166.8,272.7z"/>
		<path id="Path_1139_1_" class="st76" d="M80,263.8h22.5l-9.8,19.5L80,263.8z"/>
		<path id="Path_1140_1_" class="st74" d="M133.8,270.3l-31.4-6.5l-9.8,19.5L133.8,270.3z"/>
		<path id="Path_1141_1_" class="st71" d="M152.1,247.8h47.8l-33.1,24.9L152.1,247.8z"/>
		<path id="Path_1142_1_" class="st73" d="M102.5,263.8l21.1-18.7l10.3,25.2L102.5,263.8z"/>
		<path id="Path_1143_1_" class="st76" d="M80,245.1l22.5,18.7H80V245.1z"/>
		<path id="Path_1144_1_" class="st68" d="M249.6,215.7l-49.7,32.1l49.8,19.4L249.6,215.7z"/>
		<path id="Path_1145_1_" class="st67" d="M309.8,118.5l-23.4,21.8l20.8,29.5L309.8,118.5z"/>
		<path id="Path_1146_1_" class="st67" d="M290.3,209l-24.1-34.6l41-4.6L290.3,209z"/>
		<path id="Path_1147_1_" class="st67" d="M286.4,140.3l-20.2,34.1l41-4.6L286.4,140.3z"/>
		<path id="Path_1148_1_" class="st66" d="M249.6,215.7l16.6-41.2l24.1,34.6L249.6,215.7z"/>
		<path id="Path_1149_1_" class="st61" d="M343.5,57.9l-10.9,1.9l13.5,10.6L343.5,57.9z"/>
		<path id="Path_1150_1_" class="st72" d="M199.9,247.8l10.5-49.7l39.2,17.5L199.9,247.8z"/>
		<path id="Path_1151_1_" class="st72" d="M152.1,247.8l58.3-49.7l-10.5,49.7H152.1z"/>
		<path id="Path_1152_1_" class="st73" d="M123.5,245.1l28.5,2.7l-18.2,22.5L123.5,245.1z"/>
		<path id="Path_1153_1_" class="st76" d="M102.5,263.8l-0.9-21.8l21.9,3.2L102.5,263.8z"/>
		<path id="Path_1154_1_" class="st76" d="M80,245.1l21.6-3.2l0.9,21.8L80,245.1z"/>
		<path id="Path_1155_1_" class="st77" d="M64.7,235.4l15.3,9.7L66.3,253L64.7,235.4z"/>
		<path id="Path_1156_1_" class="st70" d="M266.2,174.5l-55.8,23.7l39.2,17.5L266.2,174.5z"/>
		<path id="Path_1157_1_" class="st69" d="M286.4,140.3h-36.8l16.6,34.1L286.4,140.3z"/>
		<path id="Path_1158_1_" class="st69" d="M210.4,198.2l39.2-57.8l16.6,34.1L210.4,198.2z"/>
		<path id="Path_1159_1_" class="st73" d="M152.1,247.8l15.7-52.7l42.6,3.1L152.1,247.8z"/>
		<path id="Path_1160_1_" class="st72" d="M167.8,195.1l27-28.9l15.7,32L167.8,195.1z"/>
		<path id="Path_1161_1_" class="st71" d="M249.6,140.3l-54.9,25.9l15.6,32L249.6,140.3z"/>
		<path id="Path_1162_1_" class="st73" d="M152.1,247.8L136.2,214l31.6-19L152.1,247.8z"/>
		<path id="Path_1163_1_" class="st73" d="M123.5,245.1l12.6-31.1l15.9,33.8L123.5,245.1z"/>
		<path id="Path_1164_1_" class="st65" d="M332.7,59.8l-19.4-1l9.7,11.6L332.7,59.8z"/>
		<path id="Path_1165_1_" class="st61" d="M341.6,76.7l-8.9-16.9l13.5,10.6L341.6,76.7z"/>
		<path id="Path_1166_1_" class="st64" d="M323,70.4l18.6,6.3l-8.9-16.9L323,70.4z"/>
		<path id="Path_1167_1_" class="st61" d="M332.7,105.9L323,70.4l18.6,6.3L332.7,105.9z"/>
		<path id="Path_1168_1_" class="st65" d="M313.3,58.8l-20.5-1l10.2,12.5L313.3,58.8z"/>
		<path id="Path_1169_1_" class="st66" d="M323,70.4h-19.9l10.2-11.6L323,70.4z"/>
		<path id="Path_1170_1_" class="st64" d="M332.7,105.9l-29.6-35.5H323L332.7,105.9z"/>
		<path id="Path_1171_1_" class="st66" d="M309.8,118.5l-6.7-48.1l29.6,35.5L309.8,118.5z"/>
		<path id="Path_1172_1_" class="st68" d="M292.8,57.9l-20.8,1.5l10.4,17.3L292.8,57.9z"/>
		<path id="Path_1173_1_" class="st68" d="M303.1,70.4l-20.6,6.3l10.4-18.8L303.1,70.4z"/>
		<path id="Path_1174_1_" class="st69" d="M272.1,59.4l-19.3,7l9.6,14.5L272.1,59.4z"/>
		<path id="Path_1175_1_" class="st68" d="M282.5,76.7l23.1,11.5l-2.5-17.8L282.5,76.7z"/>
		<path id="Path_1176_1_" class="st69" d="M262.4,80.9l20-4.2l-10.4-17.3L262.4,80.9z"/>
		<path id="Path_1177_1_" class="st71" d="M252.8,66.4l-12,6.1l21.6,8.4L252.8,66.4z"/>
		<path id="Path_1178_1_" class="st69" d="M282.5,76.7v17.8l-20-13.6L282.5,76.7z"/>
		<path id="Path_1179_1_" class="st68" d="M305.6,88.2l-23.1,6.3V76.7L305.6,88.2z"/>
		<path id="Path_1180_1_" class="st66" d="M309.8,118.5l-27.4-24l23.1-6.3L309.8,118.5z"/>
		<path id="Path_1181_1_" class="st67" d="M286.4,140.3l-3.9-45.9l27.4,24L286.4,140.3z"/>
		<path id="Path_1182_1_" class="st69" d="M249.6,140.3l21.8-22.9l14.9,22.9H249.6z"/>
		<path id="Path_1183_1_" class="st68" d="M282.5,94.4l-11,22.9l14.9,22.9L282.5,94.4z"/>
		<path id="Path_1184_1_" class="st68" d="M262.4,80.9l9,36.5l11-22.9L262.4,80.9z"/>
		<path id="Path_1185_1_" class="st70" d="M249.6,140.3l-12.5-26.7l34.3,3.8L249.6,140.3z"/>
		<path id="Path_1186_1_" class="st70" d="M194.7,166.2l42.4-52.6l12.5,26.7L194.7,166.2z"/>
		<path id="Path_1187_1_" class="st70" d="M262.4,80.9l-25.3,32.7l34.3,3.8L262.4,80.9z"/>
		<path id="Path_1188_1_" class="st70" d="M240.8,72.4l-3.7,41.2l25.3-32.7L240.8,72.4z"/>
		<path id="Path_1189_1_" class="st72" d="M240.8,72.4l-37-11l33.3,52.2L240.8,72.4z"/>
		<path id="Path_1190_1_" class="st73" d="M203.8,61.4L187.9,82l49.2,31.6L203.8,61.4z"/>
		<path id="Path_1191_1_" class="st71" d="M194.7,166.2L187.9,82l49.2,31.6L194.7,166.2z"/>
		<path id="Path_1192_1_" class="st76" d="M187.9,82l-24.1,12.4l26.6,19.2L187.9,82z"/>
		<path id="Path_1193_1_" class="st77" d="M163.9,94.4l-10.2,27.7l36.8-8.6L163.9,94.4z"/>
		<path id="Path_1194_1_" class="st78" d="M153.7,122.2l-11.8,13.3l12.3,8.7L153.7,122.2z"/>
		<path id="Path_1195_1_" class="st79" d="M141.8,135.4l-25.8,8.7l9.6,22L141.8,135.4z"/>
		<path id="Path_1196_1_" class="st77" d="M154.1,144.2l-28.5,22l16.2-30.8L154.1,144.2z"/>
		<path id="Path_1197_1_" class="st78" d="M125.7,166.2l-19.2-8.5l9.6-13.5L125.7,166.2z"/>
		<path id="Path_1198_1_" class="st76" d="M190.5,113.6l-36.4,30.5l-0.5-22L190.5,113.6z"/>
		<path id="Path_1199_1_" class="st76" d="M154.1,144.2l40.6,22l-4.3-52.6L154.1,144.2z"/>
		<path id="Path_1200_1_" class="st71" d="M167.8,195.1l-13.6-50.9l40.6,22L167.8,195.1z"/>
		<path id="Path_1201_1_" class="st73" d="M136.2,214l17.9-69.9l13.6,50.9L136.2,214z"/>
		<path id="Path_1202_1_" class="st77" d="M125.7,166.2l10.5,47.8l17.9-69.9L125.7,166.2z"/>
		<path id="Path_1203_1_" class="st76" d="M123.5,245.1l-10.3-29.4l22.9-1.7L123.5,245.1z"/>
		<path id="Path_1204_1_" class="st76" d="M101.6,241.9l11.6-26.2l10.3,29.4L101.6,241.9z"/>
		<path id="Path_1205_1_" class="st76" d="M125.7,166.2l-12.4,49.5l22.9-1.7L125.7,166.2z"/>
		<path id="Path_1206_1_" class="st77" d="M106.5,157.7l12,37.4l7.2-28.9L106.5,157.7z"/>
		<path id="Path_1207_1_" class="st77" d="M113.3,215.7l-20-3.9l8.4,30.1L113.3,215.7z"/>
		<path id="Path_1208_1_" class="st76" d="M80,245.1l13.2-33.3l8.4,30.1L80,245.1z"/>
		<path id="Path_1209_1_" class="st79" d="M64.7,235.4l28.6-23.5L80,245.1L64.7,235.4z"/>
		<path id="Path_1210_1_" class="st77" d="M118.4,195.1l-25.2,16.7l20,3.9L118.4,195.1z"/>
		<path id="Path_1211_1_" class="st80" d="M106.5,157.7l-13.2,54.1l25.2-16.7L106.5,157.7z"/>
		<path id="Path_1212_1_" class="st81" d="M106.5,157.7L91,176.6l7,16.2L106.5,157.7z"/>
		<path id="Path_1213_1_" class="st78" d="M76.6,190.9L91,176.6l7,16.2L76.6,190.9z"/>
		<path id="Path_1214_1_" class="st78" d="M76.6,190.9L69,204.8l28.9-12L76.6,190.9z"/>
		<path id="Path_1215_1_" class="st80" d="M93.3,211.8L69,204.7l28.9-12L93.3,211.8z"/>
		<path id="Path_1216_1_" class="st78" d="M64.7,235.4l4.3-30.6l24.2,7.1L64.7,235.4z"/>
		<path id="Path_1217_1_" class="st82" d="M771.9,628.9l-6.8,16l6.5,5L771.9,628.9z"/>
		<path id="Path_1218_1_" class="st83" d="M745.2,628.1l19.9,16.9l6.8-16L745.2,628.1z"/>
		<path id="Path_1219_1_" class="st84" d="M745.2,628.1l-8.3,13.5l28.1,3.4L745.2,628.1z"/>
		<path id="Path_1220_1_" class="st85" d="M721.1,645.9l15.8-4.4l3.6,14.8L721.1,645.9z"/>
		<path id="Path_1221_1_" class="st86" d="M765.1,644.9l-24.5,11.4l-3.6-14.8L765.1,644.9z"/>
		<path id="Path_1222_1_" class="st86" d="M765,644.9l1.4,16.8l-25.9-5.5L765,644.9z"/>
		<path id="Path_1223_1_" class="st87" d="M721.1,645.9l-13.1,4.6l13.1,11.3L721.1,645.9z"/>
		<path id="Path_1224_1_" class="st88" d="M740.5,656.3l-19.5,5.5v-15.9L740.5,656.3z"/>
		<path id="Path_1225_1_" class="st89" d="M707.9,650.5l-6.7,14.7l19.9-3.4L707.9,650.5z"/>
		<path id="Path_1226_1_" class="st87" d="M701.2,665.2l2.3,17.7l17.6-21.1L701.2,665.2z"/>
		<path id="Path_1227_1_" class="st89" d="M703.5,682.9l2.4,8.5l12.2-4.2L703.5,682.9z"/>
		<path id="Path_1228_1_" class="st85" d="M705.9,691.4l-8,9.8l12.9,3.8L705.9,691.4z"/>
		<path id="Path_1229_1_" class="st90" d="M718.1,687.1l-7.3,17.8l-4.9-13.6L718.1,687.1z"/>
		<path id="Path_1230_1_" class="st88" d="M721.1,661.8l-3,25.4l-14.6-4.2L721.1,661.8z"/>
		<path id="Path_1231_1_" class="st91" d="M740.5,656.3l1.1,16l-20.6-10.6L740.5,656.3z"/>
		<path id="Path_1232_1_" class="st3" d="M766.5,661.8l-24.8,10.6l-1.1-16L766.5,661.8z"/>
		<path id="Path_1233_1_" class="st86" d="M761.6,663.9l-5.4,19l-14.6-10.6L761.6,663.9z"/>
		<path id="Path_1234_1_" class="st85" d="M718.1,687.1l23.6-14.8l-20.6-10.6L718.1,687.1z"/>
		<path id="Path_1235_1_" class="st88" d="M718.1,687.1l7.3,13.1l-14.7,4.7L718.1,687.1z"/>
		<path id="Path_1236_1_" class="st3" d="M741.7,672.3l-3.1,17.7l17.7-7.2L741.7,672.3z"/>
		<path id="Path_1237_1_" class="st83" d="M718.1,687.1l23.6-14.8l-3.1,17.7L718.1,687.1z"/>
		<path id="Path_1238_1_" class="st86" d="M756.2,682.9l-7.4,16.5l-10.4-9.4L756.2,682.9z"/>
		<path id="Path_1239_1_" class="st92" d="M725.4,700.3l13.1-10.2l-20.4-2.9L725.4,700.3z"/>
		<path id="Path_1240_1_" class="st83" d="M748.9,699.4l-23.4,0.9l13.1-10.2L748.9,699.4z"/>
		<path id="Path_1241_1_" class="st86" d="M748.9,699.4l-7.8,17.8l-15.7-16.9L748.9,699.4z"/>
		<path id="Path_1242_1_" class="st89" d="M710.8,704.9l-20.6,7.4l7.6-11.1L710.8,704.9z"/>
		<path id="Path_1243_1_" class="st87" d="M690.2,712.3v13.1l13.2-4.5L690.2,712.3z"/>
		<path id="Path_1244_1_" class="st88" d="M710.8,704.9l-7.3,16l-13.2-8.6L710.8,704.9z"/>
		<path id="Path_1245_1_" class="st84" d="M725.4,700.3l-2.2,12.7l-12.4-8L725.4,700.3z"/>
		<path id="Path_1246_1_" class="st83" d="M741.1,717.2l-17.9-4.3l2.2-12.7L741.1,717.2z"/>
		<path id="Path_1247_1_" class="st84" d="M703.5,720.9l19.8-8l-12.4-8L703.5,720.9z"/>
		<path id="Path_1248_1_" class="st86" d="M741.1,717.2l-5.7,13.9l-12.1-18.2L741.1,717.2z"/>
		<path id="Path_1249_1_" class="st84" d="M703.5,720.9l31.9,10.2l-12.1-18.2L703.5,720.9z"/>
		<path id="Path_1250_1_" class="st90" d="M690.2,725.4l8.5,10.4l4.7-14.9L690.2,725.4z"/>
		<path id="Path_1251_1_" class="st93" d="M692.6,728.4l-1.8,13.2l8-5.8L692.6,728.4z"/>
		<path id="Path_1252_1_" class="st88" d="M735.3,731.1l-36.6,4.7l4.7-14.9L735.3,731.1z"/>
		<path id="Path_1253_1_" class="st83" d="M698.8,735.8l27.9,13.9l8.7-18.6L698.8,735.8z"/>
		<path id="Path_1254_1_" class="st4" d="M726.7,749.8l-7.3,3.3l-1.3-7.6L726.7,749.8z"/>
		<path id="Path_1255_1_" class="st84" d="M703.5,755.8l7.5,0.2l-1.8-14.9L703.5,755.8z"/>
		<path id="Path_1256_1_" class="st84" d="M718.1,745.5l-7.1,10.4l-1.8-14.9L718.1,745.5z"/>
		<path id="Path_1257_1_" class="st3" d="M719.4,753l-8.4,2.9l7.1-10.4L719.4,753z"/>
		<path id="Path_1258_1_" class="st88" d="M703.5,755.8l-4.7-19.9l10.4,5.2L703.5,755.8z"/>
		<path id="Path_1259_1_" class="st92" d="M690.8,741.6l12.6,14.2l-4.7-19.9L690.8,741.6z"/>
		<path id="Path_1260_1_" class="st94" d="M765,348l20.8-18.3L712.5,348H765z"/>
		<path id="Path_1261_1_" class="st89" d="M745.2,429.4L765,348l9.4,31.4L745.2,429.4z"/>
		<path id="Path_1262_1_" class="st90" d="M785.8,329.8L765,348l9.4,31.4L785.8,329.8z"/>
	</g>
</g>
</svg>
