<?xml version="1.0" encoding="utf-8"?>
<!-- Generator: Adobe Illustrator 24.1.0, SVG Export Plug-In . SVG Version: 6.00 Build 0)  -->
<svg version="1.1" xmlns="http://www.w3.org/2000/svg" xmlns:xlink="http://www.w3.org/1999/xlink" x="0px" y="0px"
	 viewBox="-20 0 550 4300" style="enable-background:new 0 0 550 4300;" xml:space="preserve">
<style type="text/css">
	.st0{display:none;}
	.st1{fill:#16B1A6;enable-background:new    ;}
	.st2{fill:#454144;enable-background:new    ;}
	.st3{fill:#5DB36C;enable-background:new    ;}
	.st4{fill:#B62B2F;enable-background:new    ;}
	.st5{fill:#16B0A5;enable-background:new    ;}
	.st6{fill:#E0B824;enable-background:new    ;}
	.st7{fill:#178A91;enable-background:new    ;}
	.st8{fill:#454144;}
	.st9{fill:#5DB36C;}
</style>
<g id="Laag_1" class="st0">

		<image style="display:inline;overflow:visible;enable-background:new    ;" width="550" height="4300" xlink:href="6E416FD80470A80F.png" >
	</image>
</g>
<g id="Laag_2">
	<polygon class="st1" points="-0.3,3958.6 214,4300 -0.3,4300 	"/>
	<polygon class="st1" points="426.2,3957.3 214,4300 550,4300 550,4163.1 	"/>
	<polygon class="st2" points="426.2,3958.6 -0.3,3958.6 214,4300 	"/>
	<polygon class="st3" points="-0.3,3958.6 427.3,3958.4 211.9,3595.3 	"/>
	<polygon class="st4" points="-0.3,3235.6 426.2,3235.6 211.9,2871.4 	"/>
	<polygon class="st5" points="-0.3,2510.7 426.2,2510.7 211.9,2148.7 	"/>
	<polygon class="st6" points="426.2,3234.7 -0.3,3234.7 211.9,3596.7 	"/>
	<polygon class="st7" points="426.2,2509.4 -0.3,2509.4 211.9,2871.4 	"/>
	<polygon class="st3" points="550,3742.3 426.2,3957.3 550,4163.1 	"/>
	<polygon class="st4" points="550,3018.4 423.3,3233.5 550,3444.2 	"/>
	<polygon class="st5" points="550,2296 424.1,2511 550,2721.7 	"/>
	<polygon class="st2" points="211.9,3596.7 -0.3,3596.7 -0.3,3958.6 	"/>
	<polygon class="st7" points="211.9,2148.7 -0.3,2148.7 -0.3,2510.7 	"/>
	<polygon class="st6" points="211.9,2871.4 -0.3,2871.4 -0.3,3235.6 	"/>
	<polygon class="st3" points="211.9,3596.7 -0.3,3596.7 -0.3,3234.7 	"/>
	<polygon class="st4" points="211.9,2871.4 -0.3,2871.4 -0.3,2509.4 	"/>
	<polygon class="st8" points="550,3595.3 211.9,3595.3 426.2,3957.3 550,3742.3 	"/>
	<polygon class="st6" points="550,2871.4 211.9,2871.4 424.4,3233.3 550,3018.3 	"/>
	<polygon class="st7" points="550.8,2148.7 211.9,2148.7 424.9,2510.7 550.8,2295.6 	"/>
	<polygon class="st9" points="425.5,3235.6 211.2,3597.6 550,3595.4 550,3445.7 	"/>
	<polygon class="st4" points="424.4,2509.4 211.9,2871.4 550,2871.4 550,2721.7 	"/>
	<polygon class="st1" points="-2.4,1786.7 211.9,2148.7 -2.4,2148.7 	"/>
	<polygon class="st1" points="424.2,1786.7 211.9,2148.7 550.8,2148.7 550.8,1997.4 	"/>
	<polygon class="st2" points="424.1,1786.7 -2.4,1786.7 211.9,2148.7 	"/>
	<polygon class="st3" points="-2.4,1786.7 424.1,1786.7 209.8,1424.7 	"/>
	<polygon class="st4" points="-2.4,1062.7 424.1,1062.7 209.8,700.7 	"/>
	<polygon class="st5" points="-1.3,338.6 424.1,338.7 208.2,-1.3 	"/>
	<polygon class="st6" points="424.1,1062.7 -2.4,1062.7 209.8,1424.7 	"/>
	<polygon class="st7" points="424.1,338.7 -2.4,338.7 209.8,700.7 	"/>
	<polygon class="st3" points="550.8,1571.7 424.1,1786.7 550.8,1997.4 	"/>
	<polygon class="st4" points="550.8,847.8 424.1,1062.8 550.8,1275.1 	"/>
	<polygon class="st5" points="552.4,125.1 424.1,338.8 551.9,551.1 	"/>
	<polygon class="st2" points="209.8,1424.7 -2.4,1424.7 -2.4,1786.7 	"/>
	<polygon class="st7" points="208.3,-1.3 -1,-1.4 -1.3,338.6 	"/>
	<polygon class="st6" points="209.8,700.7 -2.4,700.7 -2.4,1062.7 	"/>
	<polygon class="st3" points="209.8,1424.7 -2.4,1424.7 -2.4,1062.7 	"/>
	<polygon class="st4" points="209.8,700.7 -2.4,700.7 -2.4,338.7 	"/>
	<polygon class="st8" points="550.8,1424.7 209.8,1424.7 424.1,1786.7 550.8,1571.6 	"/>
	<polygon class="st6" points="550.8,700.7 209.8,700.7 424.1,1062.7 550.8,847.7 	"/>
	<polygon class="st7" points="551.6,-1.3 208.3,-1.3 423.3,340.2 552.4,125.1 	"/>
	<polygon class="st9" points="424.1,1062.7 209.8,1424.7 550.8,1424.7 550.8,1275 	"/>
	<polygon class="st4" points="424.1,338.7 209.8,700.7 552.4,700.7 552.4,551.1 	"/>
</g>
</svg>
