<svg id="Laag_2" data-name="Laag 2" xmlns="http://www.w3.org/2000/svg" viewBox="350 0 850.49 4304.52"><defs><style>.cls-1{fill:#16b0a5;}.cls-2{fill:#5db36c;}.cls-2,.cls-3,.cls-4,.cls-5,.cls-6,.cls-7{isolation:isolate;}.cls-3{fill:#b62b2f;}.cls-4{fill:#16b1a6;}.cls-5{fill:#454144;}.cls-6{fill:#e0b824;}.cls-7{fill:#178a91;}</style></defs><polygon class="cls-1" points="638.04 3946.1 425.49 4304.52 850.49 4304.52 638.04 3946.1"/><polygon class="cls-2" points="425.54 3587.69 212.99 3946.1 637.99 3946.1 425.54 3587.69"/><polygon class="cls-3" points="425.54 2870.86 212.99 3229.27 637.99 3229.27 425.54 2870.86"/><polygon class="cls-4" points="425.54 2152.52 212.99 2510.93 637.99 2510.93 425.54 2152.52"/><polygon class="cls-2" points="638.04 3229.27 425.49 3587.69 850.49 3587.69 638.04 3229.27"/><polygon class="cls-2" points="213.04 3229.27 0.49 3587.69 425.49 3587.69 213.04 3229.27"/><polygon class="cls-3" points="638.04 2511.43 425.49 2869.84 850.49 2869.84 638.04 2511.43"/><polygon class="cls-3" points="213.04 2511.43 0.49 2869.84 425.49 2869.84 213.04 2511.43"/><polygon class="cls-3" points="638.04 358.91 425.49 717.33 850.49 717.33 638.04 358.91"/><polygon class="cls-3" points="213.04 358.91 0.49 717.33 425.49 717.33 213.04 358.91"/><polygon class="cls-5" points="425.45 4304.52 637.99 3946.1 212.99 3946.1 425.45 4304.52"/><polygon class="cls-5" points="637.95 3946.1 850.49 3587.69 425.49 3587.69 637.95 3946.1"/><polygon class="cls-6" points="212.46 3228.26 425 2869.84 0 2869.84 212.46 3228.26"/><polygon class="cls-5" points="212.95 3946.1 425.49 3587.69 0.49 3587.69 212.95 3946.1"/><polygon class="cls-6" points="425.45 3587.69 637.99 3229.27 212.99 3229.27 425.45 3587.69"/><polygon class="cls-6" points="637.95 3228.26 850.49 2869.84 425.49 2869.84 637.95 3228.26"/><polygon class="cls-7" points="425.45 2869.84 637.99 2511.43 212.99 2511.43 425.45 2869.84"/><polygon class="cls-6" points="212.95 3228.26 425.49 2869.84 0.49 2869.84 212.95 3228.26"/><polygon class="cls-7" points="637.95 2510.93 850.49 2152.52 425.49 2152.52 637.95 2510.93"/><polygon class="cls-7" points="212.95 2510.93 425.49 2152.52 0.49 2152.52 212.95 2510.93"/><polygon class="cls-1" points="213.04 3946.1 0.49 4304.52 425.49 4304.52 213.04 3946.1"/><polygon class="cls-1" points="638.04 1793.58 425.49 2152 850.49 2152 638.04 1793.58"/><polygon class="cls-2" points="425.54 1435.17 212.99 1793.58 637.99 1793.58 425.54 1435.17"/><polygon class="cls-3" points="425.54 718.34 212.99 1076.75 637.99 1076.75 425.54 718.34"/><polygon class="cls-4" points="425.54 0 212.99 358.42 637.99 358.42 425.54 0"/><polygon class="cls-2" points="638.04 1076.75 425.49 1435.17 850.49 1435.17 638.04 1076.75"/><polygon class="cls-2" points="213.04 1076.75 0.49 1435.17 425.49 1435.17 213.04 1076.75"/><polygon class="cls-5" points="425.45 2152 637.99 1793.58 212.99 1793.58 425.45 2152"/><polygon class="cls-5" points="637.95 1793.58 850.49 1435.17 425.49 1435.17 637.95 1793.58"/><polygon class="cls-6" points="212.46 1075.74 425 717.33 0 717.33 212.46 1075.74"/><polygon class="cls-5" points="212.95 1793.58 425.49 1435.17 0.49 1435.17 212.95 1793.58"/><polygon class="cls-6" points="425.45 1435.17 637.99 1076.75 212.99 1076.75 425.45 1435.17"/><polygon class="cls-6" points="637.95 1075.74 850.49 717.33 425.49 717.33 637.95 1075.74"/><polygon class="cls-7" points="425.45 717.33 637.99 358.91 212.99 358.91 425.45 717.33"/><polygon class="cls-6" points="212.95 1075.74 425.49 717.33 0.49 717.33 212.95 1075.74"/><polygon class="cls-7" points="637.95 358.42 850.49 0 425.49 0 637.95 358.42"/><polygon class="cls-7" points="212.95 358.42 425.49 0 0.49 0 212.95 358.42"/><polygon class="cls-1" points="213.04 1793.58 0.49 2152 425.49 2152 213.04 1793.58"/></svg>
